<?xml version="1.0" encoding="utf-8"?>
<!-- Generator: Adobe Illustrator 14.0.0, SVG Export Plug-In . SVG Version: 6.00 Build 43363)  -->
<!DOCTYPE svg PUBLIC "-//W3C//DTD SVG 1.1//EN" "http://www.w3.org/Graphics/SVG/1.1/DTD/svg11.dtd">
<svg version="1.1" id="Layer_1" xmlns="http://www.w3.org/2000/svg" xmlns:xlink="http://www.w3.org/1999/xlink" x="0px" y="0px"
	 width="502px" height="111px" viewBox="-645 1170 502 111" enable-background="new -645 1170 502 111" xml:space="preserve">
<path fill="#006C6E" d="M-280.251,1225.312c-0.616-0.33-1.19-0.493-1.765-0.493c-0.943,0-1.847,0.205-2.627,0.576
	c-0.78,0.368-1.478,0.861-2.093,1.477c-0.617,0.615-1.191,1.313-1.684,2.054c-0.493,0.778-0.945,1.519-1.313,2.297v-6.115
	l-1.15-0.042l-5.337,1.807v0.288c0.452,0.122,0.822,0.164,1.108,0.164c0.287,0,0.534,0,0.74,0.041
	c0.164,0.042,0.329,0.205,0.41,0.452c0.082,0.246,0.124,0.695,0.124,1.353v22.129c0,1.108-0.124,1.807-0.412,2.092
	c-0.287,0.288-0.943,0.452-1.97,0.452v0.493h9.647v-0.493c-0.575,0-1.027,0-1.396-0.042c-0.37,0-0.657-0.08-0.862-0.244
	c-0.206-0.166-0.37-0.371-0.493-0.698c-0.082-0.329-0.165-0.781-0.165-1.396v-14.655c0-0.945,0-1.846,0-2.791
	c0-0.986,0.288-1.89,0.863-2.71c0.205-0.329,0.492-0.698,0.862-1.149c0.37-0.452,0.78-0.862,1.19-1.272
	c0.452-0.41,0.903-0.739,1.355-1.025c0.452-0.288,0.903-0.412,1.313-0.412c0.452,0,0.78,0.166,1.067,0.493
	c0.288,0.329,0.493,0.698,0.698,1.066c0.205,0.371,0.41,0.657,0.616,0.945c0.205,0.246,0.534,0.329,0.944,0.205
	c0.328-0.122,0.575-0.327,0.78-0.615s0.37-0.576,0.493-0.945c0.124-0.327,0.205-0.698,0.205-0.983c0-0.33,0.041-0.576,0.041-0.781
	C-279.307,1226.132-279.636,1225.639-280.251,1225.312z"/>
<path fill="#006C6E" d="M-167.03,1231.469c-1.355-2.256-3.039-3.94-5.09-5.091c-2.053-1.149-4.27-1.682-6.61-1.682
	c-2.34,0-4.515,0.573-6.567,1.682c-2.053,1.108-3.736,2.791-5.091,5.049c-1.354,2.259-2.012,5.091-2.012,8.499
	s0.658,6.198,2.012,8.457c1.355,2.258,3.038,3.898,5.091,5.049c2.052,1.108,4.228,1.643,6.609,1.643c2.34,0,4.557-0.576,6.609-1.685
	c2.052-1.108,3.737-2.79,5.09-5.049c1.355-2.258,2.012-5.049,2.012-8.415C-165.02,1236.559-165.676,1233.769-167.03,1231.469z
	 M-170.807,1247.149c-0.863,1.89-1.97,3.325-3.285,4.231c-1.313,0.942-2.75,1.353-4.352,1.311c-1.559-0.08-3.037-0.573-4.392-1.56
	c-1.355-0.984-2.504-2.381-3.449-4.268c-0.943-1.89-1.437-4.188-1.477-6.938c-0.042-2.957,0.369-5.379,1.19-7.308
	c0.862-1.929,1.929-3.325,3.243-4.229c1.313-0.903,2.791-1.313,4.351-1.23c1.56,0.081,3.039,0.615,4.394,1.6
	c1.354,0.986,2.503,2.422,3.448,4.312c0.944,1.89,1.437,4.187,1.519,6.896C-169.575,1242.841-169.945,1245.221-170.807,1247.149z"/>
<path fill="#006C6E" d="M-395.812,1217.306c0.657,0,1.23-0.246,1.765-0.698c0.534-0.451,0.78-1.147,0.78-2.092
	c0-0.945-0.247-1.644-0.78-2.095c-0.535-0.452-1.108-0.698-1.765-0.698s-1.231,0.246-1.765,0.698
	c-0.535,0.451-0.78,1.149-0.78,2.095c0,0.944,0.245,1.641,0.78,2.092C-397.043,1217.06-396.468,1217.306-395.812,1217.306z"/>
<path fill="#006C6E" d="M-198.394,1253.104c-0.247-0.493-0.37-1.028-0.37-1.602v-16.543c0-1.355-0.165-2.669-0.493-3.86
	c-0.329-1.23-0.82-2.3-1.477-3.203c-0.657-0.942-1.52-1.682-2.587-2.217c-1.067-0.532-2.34-0.82-3.817-0.82
	c-2.177,0-3.983,0.493-5.46,1.561c-1.478,1.025-2.792,2.38-3.941,4.104v-5.334l-1.149-0.042l-5.173,1.807v0.615
	c0.412,0.122,0.74,0.164,1.027,0.081c0.287-0.039,0.492-0.081,0.657-0.039c0.165,0,0.288,0.122,0.37,0.368
	c0.082,0.205,0.124,0.657,0.124,1.313v22.127c0,1.027-0.083,1.685-0.288,2.012c-0.164,0.329-0.78,0.534-1.765,0.534v0.493h7.718
	v-0.493c-0.821,0-1.231-0.205-1.273-0.656c-0.042-0.452-0.042-1.028-0.042-1.685v-16.502c0-0.163,0.083-0.451,0.205-0.903
	c0.123-0.451,0.247-0.739,0.328-0.903c0.575-1.519,1.437-2.793,2.668-3.735c1.232-0.944,2.668-1.438,4.352-1.438
	c0.985,0,1.888,0.205,2.586,0.576c0.739,0.368,1.313,0.903,1.765,1.56c0.452,0.657,0.78,1.395,0.985,2.256
	c0.205,0.864,0.288,1.727,0.288,2.669v16.257c0,1.067-0.083,1.724-0.288,2.054c-0.205,0.327-0.82,0.49-1.889,0.49v0.493h8.252
	v-0.493C-197.696,1253.842-198.148,1253.595-198.394,1253.104z"/>
<path fill="#006C6E" d="M-491.997,1239.105c-0.534-1.15-1.23-2.137-2.094-2.998c-0.902-0.862-1.929-1.561-3.079-2.093
	c-1.19-0.534-2.422-0.944-3.777-1.191c2.545-0.573,4.475-1.519,5.912-2.915c1.395-1.396,2.093-3.408,2.093-6.074
	c0-2.095-0.41-3.859-1.273-5.215c-0.862-1.396-1.929-2.463-3.284-3.242c-1.355-0.781-2.874-1.313-4.597-1.643
	c-1.725-0.286-3.49-0.452-5.255-0.452h-14.163v0.615c0.657,0,1.19,0,1.601,0.042c0.411,0.041,0.78,0.166,1.026,0.329
	c0.247,0.164,0.452,0.493,0.534,0.862c0.082,0.41,0.165,0.986,0.165,1.682v33.867c0,0.74-0.042,1.274-0.165,1.685
	c-0.082,0.41-0.287,0.698-0.492,0.862c-0.247,0.205-0.575,0.288-0.985,0.329c-0.412,0.039-0.945,0.039-1.602,0.039v0.615h15.354
	c1.805,0,3.612-0.205,5.377-0.573c1.765-0.369,3.367-1.025,4.804-1.929c1.395-0.903,2.545-2.054,3.407-3.489
	c0.862-1.438,1.313-3.203,1.313-5.378C-491.215,1241.568-491.503,1240.253-491.997,1239.105z M-513.015,1217.018
	c0.247-0.285,0.575-0.49,0.985-0.615c0.412-0.122,0.862-0.205,1.355-0.246c0.493-0.039,0.945-0.039,1.437-0.039
	c0.493,0.039,0.862,0.039,1.19,0.039c1.232,0,2.463,0.124,3.695,0.371c1.231,0.246,2.258,0.656,3.202,1.23
	c0.944,0.576,1.684,1.396,2.258,2.38c0.574,0.986,0.862,2.217,0.862,3.655c0,1.396-0.247,2.627-0.738,3.571
	c-0.493,0.984-1.15,1.766-1.972,2.381c-0.862,0.615-1.847,1.025-2.955,1.313c-1.15,0.246-2.299,0.41-3.572,0.41h-5.789v-14.451
	H-513.015z M-497.744,1247.232c-0.657,1.067-1.519,1.929-2.627,2.586c-1.067,0.656-2.299,1.108-3.695,1.313
	c-1.354,0.249-2.75,0.371-4.105,0.371c-0.369,0-0.78,0-1.272,0c-0.493,0-0.985-0.042-1.437-0.083
	c-0.493-0.039-0.945-0.205-1.313-0.41c-0.411-0.205-0.698-0.493-0.903-0.903v-15.64h3.079c1.479,0,3.039,0.122,4.599,0.288
	c1.6,0.205,2.997,0.615,4.269,1.23c1.273,0.615,2.299,1.477,3.12,2.627c0.822,1.149,1.232,2.627,1.232,4.558
	C-496.757,1244.77-497.087,1246.166-497.744,1247.232z"/>
<path fill="#006C6E" d="M-144,1226.83c-0.083-0.698-0.41-1.191-1.067-1.519c-0.617-0.33-1.232-0.493-1.767-0.493
	c-0.943,0-1.847,0.205-2.627,0.576c-0.78,0.368-1.478,0.861-2.093,1.477c-0.617,0.615-1.19,1.313-1.684,2.054
	c-0.492,0.778-0.943,1.519-1.313,2.297v-6.115l-1.15-0.042l-5.377,1.807v0.288c0.452,0.122,0.821,0.164,1.108,0.164
	c0.287,0,0.533,0,0.738,0.041c0.165,0.042,0.287,0.205,0.37,0.452c0.082,0.246,0.123,0.695,0.123,1.353v22.129
	c0,1.108-0.123,1.807-0.411,2.092c-0.287,0.288-0.944,0.452-1.97,0.452v0.493h9.647v-0.493c-0.574,0-1.026,0-1.395-0.042
	c-0.37,0-0.657-0.08-0.862-0.244c-0.207-0.166-0.37-0.371-0.493-0.698c-0.082-0.329-0.164-0.781-0.164-1.396v-14.655
	c0-0.945,0-1.846,0-2.791c0-0.986,0.287-1.89,0.862-2.71c0.205-0.329,0.492-0.698,0.862-1.149c0.37-0.452,0.78-0.862,1.19-1.272
	c0.452-0.41,0.903-0.739,1.355-1.025c0.452-0.288,0.903-0.412,1.313-0.412c0.452,0,0.78,0.166,1.068,0.493
	c0.245,0.329,0.492,0.698,0.697,1.066c0.205,0.371,0.41,0.657,0.617,0.945c0.205,0.246,0.533,0.329,0.943,0.205
	c0.329-0.122,0.575-0.327,0.78-0.615s0.37-0.576,0.493-0.945c0.122-0.327,0.205-0.698,0.205-0.983
	C-144,1227.281-144,1227.035-144,1226.83z"/>
<path fill="#006C6E" d="M-461.535,1237.914c-0.165-1.683-0.452-3.325-0.903-4.927c-0.452-1.561-1.108-2.954-1.97-4.188
	c-0.863-1.188-1.972-2.175-3.325-2.915c-1.355-0.737-2.997-1.108-4.968-1.108c-2.175,0-4.064,0.452-5.624,1.355
	c-1.6,0.903-2.915,2.095-3.94,3.571c-1.026,1.478-1.807,3.162-2.34,5.052c-0.493,1.887-0.74,3.774-0.74,5.747
	c0,1.929,0.247,3.774,0.698,5.542c0.452,1.763,1.19,3.283,2.176,4.597c0.985,1.313,2.257,2.339,3.777,3.12
	c1.519,0.779,3.366,1.15,5.5,1.15c2.38,0,4.557-0.535,6.609-1.602c2.012-1.067,3.613-2.669,4.722-4.805l-0.616-0.903
	c-0.452,0.739-1.027,1.315-1.724,1.807c-0.698,0.451-1.437,0.822-2.258,1.108c-0.82,0.246-1.642,0.451-2.504,0.576
	c-0.863,0.122-1.683,0.163-2.422,0.163c-1.807,0-3.325-0.368-4.598-1.108c-1.272-0.739-2.299-1.685-3.079-2.915
	c-0.78-1.23-1.355-2.585-1.765-4.106c-0.37-1.519-0.575-3.037-0.617-4.636h19.993L-461.535,1237.914z M-481.363,1236.026
	c0.164-1.149,0.451-2.217,0.82-3.244c0.37-1.025,0.903-1.929,1.519-2.708c0.658-0.781,1.437-1.396,2.34-1.89
	c0.945-0.451,2.012-0.698,3.325-0.698c1.191,0,2.217,0.247,2.997,0.74c0.78,0.493,1.437,1.191,1.97,2.012
	c0.493,0.82,0.903,1.765,1.15,2.749c0.247,1.027,0.452,2.012,0.534,3.039H-481.363z"/>
<path fill="#006C6E" d="M-363.299,1237.914c-0.164-1.683-0.452-3.325-0.903-4.927c-0.451-1.561-1.107-2.954-1.97-4.188
	c-0.862-1.188-1.97-2.175-3.325-2.915c-1.354-0.737-2.997-1.108-4.967-1.108c-2.175,0-4.064,0.452-5.624,1.355
	c-1.602,0.903-2.915,2.095-3.941,3.571c-1.025,1.478-1.806,3.162-2.299,5.052c-0.492,1.887-0.738,3.774-0.738,5.747
	c0,1.929,0.247,3.774,0.697,5.542c0.452,1.763,1.191,3.283,2.177,4.597c0.985,1.313,2.258,2.339,3.777,3.12
	c1.519,0.779,3.365,1.15,5.5,1.15c2.381,0,4.557-0.535,6.609-1.602c2.012-1.067,3.613-2.669,4.722-4.805l-0.617-0.903
	c-0.451,0.739-1.025,1.315-1.724,1.807c-0.698,0.451-1.437,0.822-2.257,1.108c-0.821,0.246-1.643,0.451-2.505,0.576
	c-0.861,0.122-1.683,0.163-2.421,0.163c-1.807,0-3.325-0.368-4.599-1.108c-1.272-0.739-2.298-1.685-3.079-2.915
	c-0.78-1.23-1.355-2.585-1.765-4.106c-0.37-1.519-0.575-3.037-0.615-4.636h19.951L-363.299,1237.914z M-383.085,1236.026
	c0.164-1.149,0.452-2.217,0.82-3.244c0.37-1.025,0.903-1.929,1.52-2.708c0.657-0.781,1.437-1.396,2.34-1.89
	c0.903-0.451,2.012-0.698,3.325-0.698c1.19,0,2.217,0.247,2.997,0.74c0.82,0.493,1.437,1.191,1.97,2.012
	c0.493,0.82,0.903,1.765,1.148,2.749c0.247,1.027,0.452,2.012,0.535,3.039H-383.085z"/>
<path fill="#006C6E" d="M-256.565,1252.774c-0.287,0-0.492-0.163-0.657-0.493c-0.164-0.327-0.287-0.695-0.369-1.149
	c-0.083-0.452-0.123-0.862-0.165-1.272c0-0.41-0.042-0.698-0.042-0.903v-14.86c0-3.12-0.779-5.418-2.38-6.978
	c-1.602-1.519-3.9-2.3-6.938-2.3c-1.272,0-2.462,0.205-3.53,0.615c-1.067,0.412-2.134,1.027-3.161,1.807
	c-0.452,0.329-0.862,0.656-1.273,1.066c-0.41,0.371-0.82,0.781-1.19,1.233l0.534,0.368c0.41-0.285,0.863-0.615,1.396-0.944
	c0.533-0.327,1.067-0.657,1.642-0.942c0.575-0.288,1.108-0.535,1.684-0.698c0.575-0.164,1.067-0.288,1.56-0.288
	c0.862,0,1.765,0.124,2.668,0.371c0.902,0.244,1.724,0.615,2.422,1.105c0.697,0.493,1.272,1.111,1.724,1.89
	c0.452,0.779,0.657,1.641,0.657,2.669v2.956c-1.477,0.491-2.956,0.862-4.392,1.108c-1.437,0.244-3.039,0.779-4.762,1.561
	c-1.026,0.451-2.053,0.9-2.997,1.436c-0.945,0.493-1.807,1.108-2.545,1.765c-0.738,0.657-1.313,1.438-1.765,2.381
	c-0.452,0.903-0.657,1.973-0.657,3.161c0,1.15,0.205,2.217,0.615,3.162c0.412,0.944,0.985,1.724,1.724,2.38
	c0.74,0.657,1.562,1.191,2.546,1.519c0.944,0.33,2.012,0.535,3.12,0.535c1.887,0,3.612-0.493,5.172-1.438
	c1.56-0.942,2.914-2.134,4.105-3.61c0.041,1.436,0.205,2.502,0.534,3.2c0.328,0.74,0.78,1.191,1.313,1.396
	c0.575,0.205,1.272,0.164,2.093-0.163c0.822-0.288,1.765-0.781,2.792-1.438l0.042-0.903c-0.205,0.205-0.452,0.371-0.74,0.493
	C-256.031,1252.691-256.318,1252.774-256.565,1252.774z M-261.983,1245.263c0,1.191-0.329,2.217-0.944,3.078
	c-0.616,0.903-1.395,1.602-2.34,2.134c-0.945,0.535-1.93,0.906-2.997,1.069c-1.067,0.164-2.093,0.081-2.997-0.207
	c-0.944-0.286-1.684-0.862-2.34-1.683c-0.615-0.82-0.943-1.887-0.943-3.283c0-1.191,0.287-2.134,0.862-2.957
	c0.575-0.778,1.272-1.436,2.175-2.012c0.862-0.532,1.848-0.983,2.874-1.313c1.026-0.327,2.012-0.615,2.915-0.861l3.735-0.984
	V1245.263L-261.983,1245.263z"/>
<path fill="#006C6E" d="M-344.292,1240.048c-1.068-0.779-2.217-1.478-3.49-2.093c-1.272-0.615-2.422-1.232-3.489-1.848
	c-1.068-0.615-1.97-1.313-2.668-2.054c-0.74-0.737-1.067-1.641-1.067-2.707c0-1.355,0.492-2.464,1.477-3.203
	c0.985-0.779,2.135-1.15,3.49-1.189c1.355-0.041,2.709,0.369,4.064,1.108c1.355,0.779,2.422,2.012,3.12,3.774h0.41v-6.73h-0.287
	l-0.493,0.983c-1.108-0.205-2.217-0.451-3.202-0.778c-1.025-0.33-2.135-0.493-3.284-0.493c-1.15,0-2.3,0.163-3.367,0.493
	c-1.067,0.327-2.052,0.82-2.874,1.477c-0.82,0.657-1.478,1.479-1.97,2.464c-0.493,0.986-0.74,2.095-0.74,3.366
	c0,1.519,0.37,2.832,1.068,3.86c0.698,1.025,1.561,1.929,2.587,2.668c1.025,0.737,2.134,1.395,3.365,1.971
	c1.232,0.573,2.34,1.147,3.367,1.804c1.026,0.618,1.888,1.316,2.586,2.137c0.697,0.778,1.067,1.765,1.067,2.956
	c0,1.108-0.288,2.012-0.862,2.708c-0.575,0.739-1.315,1.274-2.217,1.643c-0.903,0.369-1.888,0.535-2.997,0.535
	c-1.108-0.042-2.135-0.247-3.12-0.657c-0.985-0.412-1.889-1.069-2.669-1.89c-0.78-0.82-1.313-1.89-1.602-3.12l-0.492,0.125
	l-0.165,8.044h0.411c0.082-0.122,0.164-0.41,0.287-0.861c0.123-0.452,0.246-0.698,0.41-0.698c0.328,0.041,0.656,0.083,0.944,0.163
	c0.329,0.083,0.657,0.166,0.944,0.247c0.945,0.205,1.848,0.371,2.792,0.534c0.944,0.164,1.847,0.247,2.792,0.247
	c1.231,0,2.463-0.205,3.694-0.535c1.191-0.368,2.3-0.942,3.244-1.765c1.807-1.519,2.71-3.489,2.71-5.952
	c0-1.519-0.37-2.832-1.068-3.899C-342.321,1241.773-343.225,1240.87-344.292,1240.048z"/>
<path fill="#006C6E" d="M-437.807,1251.83c-1.52-0.449-3.162-0.779-4.927-0.862c-1.765-0.122-3.407-0.246-4.927-0.327
	c-1.519-0.083-2.791-0.288-3.817-0.534c-1.026-0.247-1.519-0.737-1.519-1.438c0-0.368,0.122-0.737,0.369-1.105
	c0.247-0.371,0.534-0.74,0.862-1.067c0.329-0.329,0.698-0.617,1.11-0.864c0.41-0.246,0.78-0.41,1.067-0.493
	c1.724,0.535,3.448,0.657,5.13,0.413c1.684-0.247,3.203-0.862,4.517-1.724c1.313-0.906,2.38-2.054,3.202-3.533
	c0.821-1.436,1.19-3.12,1.19-5.049c0-1.066-0.123-2.175-0.328-3.366c-0.205-1.189-0.615-2.217-1.232-3.12l0.903-0.369l3.982-1.643
	l-0.287-0.779c-1.068,0.122-2.012,0.205-2.792,0.288c-0.78,0.039-1.56,0.122-2.422,0.164c-0.862,0.041-1.602,0.122-2.217,0.163
	c-0.945-0.656-1.93-1.108-2.997-1.354c-1.067-0.247-2.175-0.41-3.325-0.41c-1.889,0-3.572,0.371-5.009,1.108
	c-1.437,0.739-2.627,1.685-3.53,2.832c-0.903,1.149-1.56,2.463-1.93,3.901c-0.369,1.436-0.452,2.873-0.287,4.309
	c0.205,1.438,0.698,2.752,1.519,4.023c0.822,1.272,1.97,2.3,3.449,3.12c-0.903,0.698-1.724,1.438-2.545,2.217
	c-0.82,0.781-1.395,1.602-1.765,2.422c-0.328,0.823-0.328,1.644,0.042,2.464c0.369,0.822,1.272,1.56,2.791,2.3
	c-0.697,0.41-1.395,0.82-2.093,1.313c-0.697,0.451-1.355,0.983-1.889,1.56c-0.574,0.574-1.025,1.23-1.395,1.971
	c-0.37,0.739-0.575,1.519-0.575,2.38c0,1.602,0.657,2.957,2.012,3.982c1.355,1.066,2.997,1.807,5.009,2.258
	c1.97,0.452,4.146,0.574,6.485,0.452c2.34-0.125,4.517-0.574,6.487-1.313c1.97-0.74,3.654-1.807,5.009-3.162
	c1.354-1.354,2.01-2.995,2.01-4.927c0-1.724-0.492-3.078-1.519-4.023C-434.975,1253.021-436.289,1252.281-437.807,1251.83z
	 M-452.668,1233.727c0-1.56,0.328-2.873,0.943-3.898c0.657-1.028,1.437-1.766,2.382-2.259c0.943-0.451,1.97-0.656,3.079-0.534
	c1.108,0.124,2.175,0.576,3.12,1.313c0.943,0.739,1.724,1.807,2.38,3.161c0.657,1.355,0.945,3.037,0.945,5.049
	c0,1.561-0.329,2.874-0.945,3.901c-0.657,1.025-1.437,1.766-2.38,2.256c-0.945,0.493-1.97,0.659-3.12,0.535
	c-1.108-0.125-2.175-0.535-3.079-1.272c-0.945-0.739-1.725-1.765-2.382-3.161C-452.34,1237.504-452.668,1235.78-452.668,1233.727z
	 M-436.002,1261.148c-0.657,0.657-1.437,1.191-2.38,1.561c-1.15,0.493-2.381,0.861-3.695,1.066c-1.272,0.208-2.587,0.33-3.859,0.33
	c-0.738,0-1.602-0.042-2.668-0.164c-1.067-0.083-2.093-0.288-3.12-0.615c-1.025-0.288-1.888-0.781-2.627-1.354
	c-0.738-0.618-1.067-1.438-1.067-2.505c0-0.615,0.164-1.191,0.451-1.724c0.288-0.535,0.657-1.069,1.108-1.521
	c0.452-0.449,0.945-0.9,1.478-1.23c0.534-0.368,1.068-0.656,1.519-0.903c1.068,0.205,2.177,0.371,3.244,0.452
	c1.067,0.083,2.176,0.163,3.325,0.205c0.575,0,1.355,0.041,2.422,0.124c1.026,0.081,2.093,0.247,3.12,0.491
	c1.026,0.246,1.888,0.617,2.668,1.108c0.738,0.493,1.108,1.191,1.108,2.053C-435.017,1259.63-435.345,1260.492-436.002,1261.148z"/>
<path fill="#006C6E" d="M-297.574,1216.402c1.6,0,2.749,0.288,3.447,0.862c0.698,0.576,1.231,1.685,1.52,3.283h0.615l-0.165-7.266
	h-31.691l-0.247,7.266h0.534c0.328-1.558,0.862-2.668,1.6-3.283c0.74-0.615,1.889-0.903,3.449-0.903h7.964v34.36
	c0,0.739-0.041,1.274-0.164,1.685c-0.082,0.368-0.287,0.698-0.493,0.903c-0.247,0.205-0.575,0.327-0.985,0.368
	c-0.41,0.042-0.943,0.042-1.6,0.042v0.615h11.617v-0.615c-0.698,0-1.231,0-1.642-0.042c-0.412-0.041-0.74-0.163-0.986-0.368
	c-0.246-0.205-0.41-0.493-0.492-0.903c-0.082-0.369-0.123-0.945-0.123-1.685v-34.36h7.842V1216.402z"/>
<path fill="#006C6E" d="M-393.185,1253.349c-0.123-0.327-0.165-0.942-0.165-1.846v-26.355l-1.149-0.041l-5.912,2.053v0.286
	c0.533,0.124,0.945,0.166,1.313,0.124c0.328-0.041,0.616-0.041,0.821,0.042c0.205,0.039,0.37,0.205,0.452,0.451
	c0.082,0.244,0.164,0.696,0.164,1.395v21.88c0,1.191-0.164,1.89-0.492,2.136c-0.329,0.247-1.068,0.41-2.135,0.41v0.493h8.744v-0.493
	C-392.528,1253.842-393.061,1253.678-393.185,1253.349z"/>
<path fill="#006C6E" d="M-234.355,1225.968c0.124,0,0.287,0,0.492,0.042c0.206,0,0.411,0.08,0.575,0.163
	c0.165,0.083,0.329,0.164,0.412,0.288c0.122,0.122,0.122,0.247,0.082,0.41l-7.389,21.47l-8.005-20.729
	c-0.124-0.371-0.165-0.657-0.082-0.862c0.041-0.205,0.205-0.371,0.41-0.493c0.205-0.083,0.452-0.166,0.739-0.205
	c0.288-0.041,0.575-0.041,0.863-0.041v-0.493h-8.622v0.493c0.411,0.041,0.74,0.122,1.068,0.246c0.287,0.122,0.534,0.369,0.697,0.779
	l10.797,26.685c-0.082,0.285-0.247,0.82-0.452,1.56c-0.205,0.737-0.493,1.6-0.78,2.505c-0.288,0.942-0.615,1.888-0.985,2.913
	c-0.37,1.027-0.74,1.931-1.19,2.751c-0.412,0.82-0.863,1.478-1.273,2.012c-0.41,0.493-0.862,0.74-1.272,0.698
	c-0.37-0.041-0.616-0.246-0.781-0.615c-0.164-0.371-0.328-0.781-0.492-1.232c-0.164-0.452-0.452-0.862-0.78-1.23
	c-0.328-0.371-0.862-0.535-1.602-0.535c-0.245,0-0.492,0.125-0.697,0.33s-0.41,0.49-0.575,0.778
	c-0.165,0.288-0.287,0.615-0.37,0.945c-0.082,0.327-0.124,0.573-0.124,0.778c0.042,0.371,0.247,0.657,0.575,0.945
	c0.328,0.246,0.74,0.493,1.19,0.656c0.453,0.164,0.903,0.327,1.396,0.41c0.452,0.083,0.822,0.125,1.108,0.125
	c1.19,0,2.258-0.33,3.202-0.986c0.903-0.657,1.725-1.438,2.463-2.381c0.738-0.944,1.313-1.97,1.847-3.078
	c0.493-1.108,0.945-2.137,1.273-3.12l11.207-30.625c0.164-0.41,0.329-0.698,0.534-0.903s0.533-0.33,0.943-0.369v-0.493h-6.322v0.41
	H-234.355z"/>
<path fill="#006C6E" d="M-403.653,1234.384c-0.45-1.807-1.148-3.408-2.093-4.803c-0.944-1.396-2.134-2.546-3.612-3.408
	c-1.478-0.861-3.16-1.313-5.132-1.313c-2.012,0-3.777,0.452-5.295,1.396c-1.519,0.945-2.792,2.256-3.777,3.982v-19.048
	c-0.247-0.125-0.78-0.125-1.56,0c-0.82,0.122-1.683,0.285-2.585,0.49c-0.945,0.205-1.807,0.413-2.586,0.657
	c-0.822,0.205-1.355,0.371-1.643,0.454v0.285c0.411,0.125,0.863,0.166,1.314,0.125c0.492-0.042,0.903-0.042,1.313,0.041
	c0.41,0.039,0.739,0.205,0.985,0.449c0.247,0.247,0.41,0.698,0.41,1.396l-0.041,39.287h0.615l1.847-2.915
	c1.273,1.272,2.628,2.217,4.023,2.749c1.396,0.535,2.955,0.781,4.72,0.781c2.218,0,4.147-0.451,5.83-1.313
	c1.684-0.861,3.079-2.012,4.229-3.447c1.15-1.396,2.012-3.039,2.627-4.805c0.617-1.807,0.945-3.652,1.027-5.5
	C-403.037,1237.997-403.202,1236.148-403.653,1234.384z M-408.989,1247.438c-0.781,1.685-1.765,2.957-2.915,3.777
	c-1.15,0.822-2.422,1.271-3.777,1.313c-1.355,0.041-2.627-0.205-3.777-0.737c-1.15-0.576-2.135-1.396-2.915-2.505
	c-0.78-1.108-1.19-2.422-1.19-3.982v-8.786c0-1.724,0.37-3.242,1.19-4.515c0.78-1.271,1.765-2.217,2.915-2.834
	c1.15-0.615,2.422-0.901,3.777-0.82c1.355,0.083,2.627,0.576,3.777,1.438c1.15,0.903,2.134,2.256,2.915,4.063
	c0.78,1.807,1.19,4.148,1.19,6.98C-407.799,1243.539-408.209,1245.756-408.989,1247.438z"/>
<linearGradient id="SVGID_1_" gradientUnits="userSpaceOnUse" x1="-536.3584" y1="1215.7373" x2="-643.1597" y2="1234.7808">
	<stop  offset="0" style="stop-color:#C2D82E"/>
	<stop  offset="0.0762" style="stop-color:#C2D82E"/>
	<stop  offset="0.2439" style="stop-color:#8EBB40"/>
	<stop  offset="0.4281" style="stop-color:#5C9E50"/>
	<stop  offset="0.602" style="stop-color:#34885E"/>
	<stop  offset="0.7605" style="stop-color:#177867"/>
	<stop  offset="0.8983" style="stop-color:#066E6D"/>
	<stop  offset="1" style="stop-color:#006B6F"/>
</linearGradient>
<path fill="url(#SVGID_1_)" d="M-541.586,1200.353c-9.689-18.762-32.759-26.11-51.52-16.421
	c-8.949,4.639-15.313,12.314-18.474,21.141c13.056-4.681,27.917,0.944,34.443,13.589c7.143,13.794,1.724,30.788-12.069,37.932
	c-13.835,7.144-30.79,1.724-37.932-12.109c-12.274-23.77-2.915-52.998,20.854-65.314c16.051-8.293,34.524-6.772,48.646,2.38
	c-9.278-6.855-20.608-10.549-32.144-10.549c-8.375,0-16.914,1.97-24.878,6.076c-26.601,13.711-37.028,46.47-23.276,73.071
	c9.114,17.61,26.52,28.12,44.953,29.271h6.527c7.307-0.452,14.655-2.381,21.593-5.994
	C-538.261,1259.672-527.834,1226.954-541.586,1200.353z M-578.902,1265.377c-13.835,7.144-30.215,4.312-40.847-5.869
	c5.295,3.325,11.413,5.132,17.653,5.132c5.09,0,10.262-1.191,15.147-3.696c16.174-8.374,22.538-28.242,14.163-44.416
	c-5.582-10.799-16.256-17.202-27.586-17.817c14.574-2.176,29.558,5.007,36.742,18.843
	C-554.641,1234.918-561.456,1256.347-578.902,1265.377z"/>
</svg>
