<?xml version="1.0" encoding="utf-8"?>
<!-- Generator: Adobe Illustrator 18.1.1, SVG Export Plug-In . SVG Version: 6.00 Build 0)  -->
<svg version="1.1" id="Layer_1" xmlns="http://www.w3.org/2000/svg" xmlns:xlink="http://www.w3.org/1999/xlink" x="0px" y="0px"
	 width="56px" height="37px" viewBox="0 0 56 37" enable-background="new 0 0 56 37" xml:space="preserve">
<path fill="#E6E8E7" d="M50.7,1H4.4C2.6,1,1,2.5,1,4.4v28.2C1,34.5,2.5,36,4.4,36h46.3c1.8,0,3.4-1.5,3.4-3.4V4.4
	C54.1,2.5,52.6,1,50.7,1z"/>
<path fill="#FFFFFF" d="M50.7,1H4.4C2.6,1,1,2.5,1,4.4v28.2C1,34.5,2.5,36,4.4,36h0.1L54.1,4.8V4.4C54.1,2.5,52.6,1,50.7,1z"/>
<path fill="#009DDD" d="M27.5,26.2c2.1-1.9,3.4-4.7,3.4-7.7c0-3.1-1.3-5.8-3.4-7.7c-1.8-1.7-4.3-2.7-7-2.7
	c-5.7,0-10.4,4.7-10.4,10.4c0,5.8,4.6,10.4,10.4,10.4C23.2,28.9,25.7,27.9,27.5,26.2L27.5,26.2z"/>
<path fill="#ED1C2E" d="M34.5,8c-2.7,0-5.1,1-7,2.7c-0.4,0.3-0.7,0.7-1,1.1h2.1c0.3,0.4,0.6,0.7,0.8,1.1h-3.7
	c-0.2,0.4-0.4,0.7-0.6,1.1H30c0.2,0.4,0.3,0.7,0.4,1.1h-5.7c-0.1,0.4-0.2,0.7-0.3,1.1h6.4c0.2,0.7,0.2,1.5,0.2,2.2
	c0,1.2-0.2,2.3-0.5,3.3h-5.7c0.1,0.4,0.3,0.7,0.4,1.1h4.9c-0.2,0.4-0.4,0.8-0.6,1.1h-3.7c0.2,0.4,0.5,0.8,0.8,1.1h2.1
	c-0.3,0.4-0.7,0.8-1,1.1c1.8,1.7,4.3,2.7,7,2.7c5.7,0,10.4-4.7,10.4-10.4C44.8,12.7,40.2,8,34.5,8L34.5,8z"/>
<path fill="#ED1C2E" d="M43.4,24.3c0-0.2,0.1-0.3,0.3-0.3s0.3,0.2,0.3,0.3c0,0.2-0.1,0.3-0.3,0.3C43.6,24.7,43.4,24.5,43.4,24.3
	L43.4,24.3z M43.8,24.6c0.1,0,0.3-0.1,0.3-0.3c0-0.1-0.1-0.3-0.3-0.3c-0.1,0-0.3,0.1-0.3,0.3S43.6,24.6,43.8,24.6L43.8,24.6z
	 M43.7,24.5L43.7,24.5l-0.1-0.3h0.1h0.1c0,0,0,0,0,0.1C43.8,24.3,43.8,24.4,43.7,24.5l0.1,0L43.7,24.5l0.1-0.1L43.7,24.5L43.7,24.5
	v-0.2l0,0l0,0l0,0l0,0l0,0l0,0v0.1V24.5L43.7,24.5z"/>
<path fill="#FFFFFF" d="M41.3,20.8c0-0.2,0.1-0.3,0.3-0.3s0.3,0.2,0.3,0.3c0,0.2-0.1,0.3-0.3,0.3C41.4,21.1,41.3,20.9,41.3,20.8
	L41.3,20.8z M41.6,21c0.1,0,0.3-0.1,0.3-0.3c0-0.1-0.1-0.3-0.3-0.3c-0.1,0-0.3,0.1-0.3,0.3S41.4,21,41.6,21L41.6,21z M41.5,20.9
	L41.5,20.9l-0.1-0.3h0.1h0.1c0,0,0,0,0,0.1C41.6,20.7,41.6,20.8,41.5,20.9l0.1,0L41.5,20.9l0.1-0.1L41.5,20.9L41.5,20.9v-0.2l0,0
	l0,0l0,0l0,0l0,0l0,0v0.1V20.9L41.5,20.9z"/>
<polygon fill="#FFFFFF" points="19.2,21.1 17.9,21.1 18.7,17 16.9,21.1 15.8,21.1 15.6,17.1 14.8,21.1 13.6,21.1 14.6,15.8 
	16.6,15.8 16.7,19.1 18.2,15.8 20.3,15.8 "/>
<path fill="#FFFFFF" d="M33.7,21c-0.4,0.1-0.6,0.1-0.9,0.1c-0.7,0-1-0.3-1-0.9c0-0.1,0-0.3,0-0.4l0.1-0.4l0.1-0.3l0.6-3.3h1.3
	l-0.2,1h0.7l-0.2,1h-0.7l-0.3,1.8c0,0.1,0,0.1,0,0.2c0,0.2,0.1,0.3,0.4,0.3c0.1,0,0.3,0,0.3,0L33.7,21L33.7,21z"/>
<path fill="#FFFFFF" d="M37.4,16.8c-0.1,0-0.1,0-0.1,0c-0.1,0-0.1,0-0.1,0h-0.1c-0.4,0-0.7,0.2-1.1,0.7l0.1-0.7h-1.2l-0.8,4.3h1.3
	c0.5-2.6,0.7-3.1,1.3-3.1c0,0,0.1,0,0.2,0h0.2L37.4,16.8L37.4,16.8z"/>
<path fill="#FFFFFF" d="M28.5,18.2c0,0.5,0.3,0.9,1,1.2c0.5,0.2,0.6,0.3,0.6,0.5c0,0.3-0.2,0.4-0.7,0.4c-0.4,0-0.8-0.1-1.2-0.2
	l-0.2,1h0.1h0.2c0.1,0,0.2,0,0.3,0c0.3,0,0.6,0,0.7,0c1.4,0,2-0.5,2-1.4c0-0.6-0.3-0.9-0.9-1.2c-0.5-0.2-0.6-0.3-0.6-0.5
	s0.2-0.4,0.6-0.4c0.3,0,0.6,0,0.9,0.1l0.2-1c-0.3,0-0.9-0.1-1.1-0.1C29,16.7,28.5,17.4,28.5,18.2L28.5,18.2z"/>
<path fill="#FFFFFF" d="M23.4,21.1h-1.1v-0.4c-0.3,0.4-0.8,0.5-1.4,0.5c-0.7,0-1.2-0.5-1.2-1.2c0-1,0.8-1.7,2.3-1.7
	c0.1,0,0.3,0,0.5,0c0-0.1,0.1-0.2,0.1-0.3c0-0.3-0.2-0.4-0.8-0.4c-0.4,0-0.8,0-1.1,0.1h-0.2h-0.1l0.2-1c0.6-0.2,1.1-0.2,1.5-0.2
	c1.1,0,1.7,0.4,1.7,1.3c0,0.2,0,0.4-0.1,0.9l-0.3,1.5v0.3v0.2v0.1L23.4,21.1L23.4,21.1z M22.5,19.2c-0.1,0-0.2,0-0.3,0
	c-0.7,0-1.1,0.2-1.1,0.7c0,0.3,0.2,0.4,0.5,0.4C22.1,20.3,22.5,19.8,22.5,19.2L22.5,19.2z"/>
<path fill="#FFFFFF" d="M27.7,21c-0.4,0.1-0.9,0.2-1.3,0.2c-1.4,0-2.2-0.7-2.2-1.9c0-1.5,1-2.6,2.3-2.6c1.1,0,1.7,0.6,1.7,1.6
	c0,0.3,0,0.6-0.2,1.1h-2.6c0,0.1,0,0.1,0,0.1c0,0.5,0.4,0.8,1.1,0.8c0.5,0,0.9-0.1,1.3-0.3L27.7,21L27.7,21z M27,18.4
	c0-0.1,0-0.2,0-0.2c0-0.3-0.2-0.6-0.6-0.6c-0.4,0-0.7,0.3-0.8,0.8L27,18.4L27,18.4z"/>
<path fill="#FFFFFF" d="M41.4,19.1c-0.2,1.4-1.2,2.1-2.5,2.1c-1.5,0-2.1-0.9-2.1-2c0-1.5,1-2.6,2.5-2.6c1.3,0,2.1,0.9,2.1,1.9
	C41.5,18.9,41.5,18.9,41.4,19.1L41.4,19.1z M40.1,18.6c0-0.5-0.2-0.9-0.7-0.9c-0.7,0-1.1,0.8-1.1,1.5c0,0.6,0.3,1,0.7,1
	c0.3,0,0.9-0.4,1-1.1C40.1,19,40.1,18.8,40.1,18.6L40.1,18.6z"/>
</svg>
