<?xml version="1.0" encoding="utf-8"?>
<!-- Generator: Adobe Illustrator 18.1.1, SVG Export Plug-In . SVG Version: 6.00 Build 0)  -->
<svg version="1.1" id="Layer_1" xmlns="http://www.w3.org/2000/svg" xmlns:xlink="http://www.w3.org/1999/xlink" x="0px" y="0px"
	 width="56px" height="37px" viewBox="0 0 56 37" enable-background="new 0 0 56 37" xml:space="preserve">
<path fill="#E6E8E7" d="M50.7,1H4.4C2.6,1,1,2.5,1,4.4v28.2C1,34.5,2.5,36,4.4,36h46.3c1.8,0,3.4-1.5,3.4-3.4V4.4
	C54,2.5,52.5,1,50.7,1z"/>
<path fill="#FFFFFF" d="M50.7,1H4.4C2.6,1,1,2.5,1,4.4v28.2C1,34.5,2.5,36,4.4,36h0.1L54,4.8V4.4C54,2.5,52.5,1,50.7,1z"/>
<ellipse fill="#DC1F26" cx="20.5" cy="18.5" rx="10.4" ry="10.4"/>
<ellipse fill="#F9A01B" cx="34.6" cy="18.5" rx="10.4" ry="10.4"/>
</svg>
