<?xml version="1.0" encoding="utf-8"?>
<!-- Generator: Adobe Illustrator 18.1.1, SVG Export Plug-In . SVG Version: 6.00 Build 0)  -->
<svg version="1.1" id="Layer_1" xmlns="http://www.w3.org/2000/svg" xmlns:xlink="http://www.w3.org/1999/xlink" x="0px" y="0px"
	 width="56px" height="37px" viewBox="0 0 56 37" enable-background="new 0 0 56 37" xml:space="preserve">
<path fill="#FFFFFF" d="M50.7,1H4.4C2.6,1,1,2.5,1,4.4v28.2C1,34.5,2.5,36,4.4,36h46.3c1.8,0,3.4-1.5,3.4-3.4V4.4
	C54.1,2.5,52.6,1,50.7,1z"/>
<path fill="#E3A325" d="M1,28.3v4.3C1,34.5,2.5,36,4.4,36h46.3c1.8,0,3.4-1.5,3.4-3.4v-4.3H1z"/>
<g>
	<path fill="#294798" d="M18.7,12l-3.3,8.9L15,19.1l0,0l-1.2-6C13.6,12.3,13,12,12.3,12H6.9v0.2c1.3,0.3,2.5,0.8,3.5,1.4l3,11.4h3.5
		l5.3-13H18.7z"/>
	<polygon fill="#294798" points="21.5,25 24.8,25 26.9,12 23.5,12 	"/>
	<path fill="#294798" d="M33.6,17.2c-1.2-0.6-1.9-1-1.9-1.6c0-0.5,0.6-1.1,1.9-1.1c1.1,0,1.9,0.2,2.5,0.5l0.3,0.2l0.5-2.8
		c-0.7-0.3-1.7-0.6-3-0.6c-3.3,0-5.6,1.8-5.6,4.3c0,1.9,1.7,2.9,2.9,3.5c1.3,0.6,1.7,1,1.7,1.6c0,0.9-1,1.3-2,1.3
		c-1.3,0-2-0.2-3.1-0.7l-0.4-0.2l-0.5,2.9c0.8,0.4,2.2,0.7,3.7,0.7c3.5,0,5.8-1.7,5.8-4.4C36.4,19.3,35.6,18.2,33.6,17.2z"/>
	<path fill="#294798" d="M42.9,12c-0.8,0-1.4,0.2-1.8,1.1l-5,11.9h3.5c0,0,0.6-1.6,0.7-2c0.4,0,3.8,0,4.3,0c0.1,0.5,0.4,1.9,0.4,1.9
		h3.1l-2.7-13L42.9,12L42.9,12z M41.4,20.4c0.3-0.7,1.3-3.6,1.3-3.6s0.3-0.8,0.4-1.2l0.2,1.1c0,0,0.6,3.1,0.8,3.8
		C43.6,20.4,42,20.4,41.4,20.4z"/>
	<path fill="#294798" d="M50.7,1H4.4C2.6,1,1,2.5,1,4.4v4.3h53V4.4C54.1,2.5,52.6,1,50.7,1z"/>
</g>
</svg>
