<?xml version="1.0" encoding="utf-8"?>
<!-- Generator: Adobe Illustrator 18.1.1, SVG Export Plug-In . SVG Version: 6.00 Build 0)  -->
<svg version="1.1" id="Layer_1" xmlns="http://www.w3.org/2000/svg" xmlns:xlink="http://www.w3.org/1999/xlink" x="0px" y="0px"
	 width="56px" height="37px" viewBox="0 0 56 37" enable-background="new 0 0 56 37" xml:space="preserve">
<path fill-rule="evenodd" clip-rule="evenodd" fill="#263D84" d="M4.4,1H51c1.9,0,3.4,1.5,3.4,3.4v28.2c0,1.9-1.5,3.4-3.4,3.4H4.4
	C2.5,36,1,34.5,1,32.6V4.4C1,2.5,2.5,1,4.4,1z"/>
<path fill-rule="evenodd" clip-rule="evenodd" fill="#2A4796" d="M4.4,1H51c1.9,0,3.4,1.5,3.4,3.4v0.4L4.5,36H4.4
	C2.5,36,1,34.5,1,32.6V4.4C1,2.5,2.5,1,4.4,1z"/>
<rect x="6.2" y="5.7" fill-rule="evenodd" clip-rule="evenodd" fill="#FFFFFF" width="42.9" height="18"/>
<path fill-rule="evenodd" clip-rule="evenodd" fill="#263D84" d="M18.7,8.1L15.4,17l-0.4-1.8c-0.8-2.2-2.3-4.1-4.7-5.4l3,11.4H17
	l5.3-13H18.7z"/>
<polygon fill-rule="evenodd" clip-rule="evenodd" fill="#263D84" points="21.5,21.1 23.6,8.1 27,8.1 24.9,21.1 "/>
<path fill-rule="evenodd" clip-rule="evenodd" fill="#263D84" d="M37.1,8.4c-0.7-0.3-1.7-0.5-3-0.5c-3.3,0-5.7,1.8-5.7,4.3
	c0,1.9,1.7,2.9,2.9,3.5c1.3,0.6,1.7,1,1.7,1.6c0,0.9-1,1.3-2,1.3c-1.3,0-2.1-0.2-3.2-0.7l-0.4-0.2L27,20.6c0.8,0.4,2.2,0.7,3.7,0.7
	c3.5,0,5.8-1.7,5.8-4.4c0-1.5-0.9-2.6-2.8-3.5c-1.2-0.6-1.9-1-1.9-1.6c0-0.5,0.6-1.1,1.9-1.1c1.1,0,1.9,0.2,2.5,0.5l0.3,0.2
	L37.1,8.4z"/>
<path fill-rule="evenodd" clip-rule="evenodd" fill="#263D84" d="M45.7,8.1h-2.6c-0.8,0-1.4,0.2-1.8,1.1l-5,11.9h3.5
	c0,0,0.6-1.6,0.7-2c0.4,0,3.8,0,4.3,0c0.1,0.5,0.4,1.9,0.4,1.9h3.1L45.7,8.1z M41.6,16.5c0.3-0.7,1.3-3.6,1.3-3.6
	c0,0,0.3-0.8,0.4-1.2l0.2,1.1c0,0,0.6,3.1,0.8,3.8C43.8,16.5,42.2,16.5,41.6,16.5z"/>
<path fill-rule="evenodd" clip-rule="evenodd" fill="#E1A225" d="M12.4,8.1H7l0,0.2c4.2,1.1,7,3.7,8.1,6.9l-1.2-6
	C13.7,8.4,13.1,8.1,12.4,8.1z"/>
<path fill-rule="evenodd" clip-rule="evenodd" fill="#FFFFFF" d="M21,31.3c1.2,0,2.2-1,2.3-2.7c0.2-1.7-0.6-2.7-1.8-2.7H20l-0.6,5.4
	H21L21,31.3z M21.5,26.8c0.8,0,1.2,0.7,1,1.7c-0.1,1.1-0.6,1.7-1.4,1.7h-0.8l0.4-3.5H21.5L21.5,26.8z M26.5,31.3l0.1-1h-2l0.1-1.4
	h1.5l0.1-1h-1.5l0.1-1.1h1.9l0.1-1h-2.7l-0.6,5.4H26.5L26.5,31.3z M28.8,31.3c0.7,0,1.5-0.3,1.7-1.6c0.1-0.7-0.1-1.1-0.6-1.3
	c0.3-0.3,0.4-0.6,0.5-1.1c0.1-1.2-0.5-1.4-1.5-1.4h-1.1l-0.6,5.4H28.8L28.8,31.3z M29.1,26.7c0.4,0,0.6,0.1,0.5,0.7
	C29.5,27.9,29.2,28,29,28h-0.7l0.1-1.3H29.1L29.1,26.7z M29,28.8c0.4,0,0.7,0.2,0.7,0.8c-0.1,0.6-0.4,0.8-0.9,0.8H28l0.2-1.6H29
	L29,28.8z M31.7,31.3l0.6-5.4h-0.8l-0.6,5.4H31.7L31.7,31.3z M35.8,26.8l0.1-1h-3.1l-0.1,1h1.2l-0.5,4.4h0.8l0.5-4.4H35.8z"/>
</svg>
