<?xml version="1.0" encoding="utf-8"?>
<!-- Generator: Adobe Illustrator 18.1.1, SVG Export Plug-In . SVG Version: 6.00 Build 0)  -->
<svg version="1.1" id="Layer_1" xmlns="http://www.w3.org/2000/svg" xmlns:xlink="http://www.w3.org/1999/xlink" x="0px" y="0px"
	 width="56px" height="37px" viewBox="0 0 56 37" enable-background="new 0 0 56 37" xml:space="preserve">
<path fill="#E6E8E7" d="M50.7,1H4.4C2.6,1,1,2.5,1,4.4v28.2C1,34.5,2.5,36,4.4,36h46.3c1.8,0,3.4-1.5,3.4-3.4V4.4
	C54.1,2.5,52.6,1,50.7,1z"/>
<path fill="#FFFFFF" d="M50.7,1H4.4C2.6,1,1,2.5,1,4.4v28.2C1,34.5,2.5,36,4.4,36h0.1L54.1,4.8V4.4C54.1,2.5,52.6,1,50.7,1z"/>
<g>
	<path fill="#16285A" d="M14.4,14.8c0-0.5-0.1-0.9-0.3-1.3c-0.2-0.3-0.4-0.6-0.8-0.8c-0.3-0.2-0.7-0.4-1.2-0.4
		c-0.5-0.1-1-0.1-1.6-0.1H7.6c-0.3,0-0.6,0.2-0.7,0.5L5,21.2c-0.1,0.3,0.1,0.5,0.4,0.5h1.4c0.3,0,0.6-0.2,0.7-0.5L8,19.1
		c0.1-0.3,0.4-0.5,0.7-0.5h0.4c1.7,0,3-0.3,3.9-1C13.9,16.8,14.4,15.9,14.4,14.8z M11.1,16.3c-0.4,0.3-1,0.5-1.7,0.5H9.1
		c-0.3,0-0.5-0.2-0.4-0.5l0.4-1.8C9.2,14.2,9.5,14,9.8,14h0.5c0.5,0,0.9,0.1,1.2,0.3c0.3,0.2,0.4,0.5,0.4,0.8
		C11.8,15.6,11.5,16,11.1,16.3z"/>
	<path fill="#16285A" d="M28.4,14.3c-0.3,0-0.7,0.2-0.9,0.5L25.1,19l-0.7-4.2c-0.1-0.3-0.4-0.5-0.7-0.5h-1.2c-0.3,0-0.5,0.2-0.4,0.5
		l1.1,6.9c0,0.2,0,0.3,0.1,0.4L22,24.3c-0.2,0.3-0.1,0.5,0.2,0.5h1.4c0.3,0,0.7-0.2,0.9-0.5l6-10.1L28.4,14.3L28.4,14.3z"/>
	<path fill="#16285A" d="M20.6,14.7c-0.5-0.3-1.3-0.4-2.5-0.4c-0.6,0-1.1,0-1.7,0.1s-1,0.2-1.2,0.2L15,15.8c-0.1,0.3,0,0.5,0.1,0.5
		c0.2-0.1,0.6-0.2,1-0.3c0.5-0.1,0.9-0.2,1.2-0.2c0.6,0,1,0.1,1.2,0.2c0.3,0.1,0.4,0.3,0.4,0.6c0,0.1,0,0.1,0,0.2s0,0.1,0,0.1
		c-0.8,0-1.5,0.1-2.2,0.2s-1.3,0.3-1.8,0.5s-0.9,0.6-1.2,0.9c-0.3,0.4-0.4,0.9-0.4,1.4s0.2,1,0.6,1.3s0.9,0.5,1.4,0.5
		c0.4,0,0.7,0,0.9-0.1c0.2-0.1,0.4-0.1,0.7-0.2c0.2-0.1,0.4-0.2,0.6-0.3c0.2-0.1,0.4-0.2,0.5-0.3l-0.2,0.8h1.7
		c0.3,0,0.6-0.2,0.7-0.5l1-4.4c0-0.1,0-0.2,0.1-0.4c0-0.1,0-0.2,0-0.3C21.4,15.5,21.1,15,20.6,14.7z M18.3,19.8
		c-0.2,0.2-0.5,0.3-0.7,0.4c-0.3,0.1-0.5,0.2-0.7,0.2c-0.3,0-0.6,0-0.8-0.2c-0.2-0.1-0.3-0.3-0.3-0.5c0-0.3,0.1-0.5,0.2-0.7
		s0.3-0.3,0.6-0.4c0.3-0.1,0.6-0.2,0.9-0.2c0.4,0,0.7-0.1,1.1-0.1L18.3,19.8z"/>
</g>
<g>
	<path fill="#155C93" d="M48.4,12.2c-0.3,0-0.6,0.2-0.7,0.5l-1.8,8.4c-0.1,0.3,0.1,0.5,0.4,0.5h1.2c0.3,0,0.6-0.2,0.7-0.5l2-8.9
		C50.1,12.2,48.4,12.2,48.4,12.2z"/>
	<path fill="#155C93" d="M38.7,14.8c0-0.5-0.1-0.9-0.3-1.3c-0.2-0.3-0.4-0.6-0.8-0.8c-0.3-0.2-0.7-0.4-1.2-0.4
		c-0.5-0.1-1-0.1-1.6-0.1h-2.9c-0.3,0-0.6,0.2-0.7,0.5l-1.9,8.5c-0.1,0.3,0.1,0.5,0.4,0.5h1.4c0.3,0,0.6-0.2,0.7-0.5l0.5-2.1
		c0.1-0.3,0.4-0.5,0.7-0.5h0.4c1.7,0,3-0.3,3.9-1C38.2,16.8,38.7,15.9,38.7,14.8z M35.5,16.3c-0.4,0.3-1,0.5-1.7,0.5h-0.3
		c-0.3,0-0.5-0.2-0.4-0.5l0.4-1.8c0.1-0.3,0.4-0.5,0.7-0.5h0.5c0.5,0,0.9,0.1,1.2,0.3c0.3,0.2,0.4,0.5,0.4,0.8
		C36.1,15.5,35.9,16,35.5,16.3z"/>
	<path fill="#155C93" d="M44.9,14.7c-0.5-0.3-1.3-0.4-2.5-0.4c-0.6,0-1.1,0-1.7,0.1s-1,0.2-1.2,0.2l-0.2,1.2c-0.1,0.3,0,0.5,0.1,0.5
		c0.2-0.1,0.6-0.2,1-0.3c0.5-0.1,0.9-0.2,1.2-0.2c0.6,0,1,0.1,1.3,0.2s0.4,0.3,0.4,0.6c0,0.1,0,0.1,0,0.2s0,0.1,0,0.1
		c-0.8,0-1.5,0.1-2.2,0.2s-1.3,0.3-1.8,0.5s-0.9,0.6-1.2,0.9c-0.3,0.4-0.4,0.9-0.4,1.4s0.2,1,0.6,1.3s0.9,0.5,1.4,0.5
		c0.4,0,0.7,0,0.9-0.1c0.2-0.1,0.4-0.1,0.7-0.2c0.2-0.1,0.4-0.2,0.6-0.3c0.2-0.1,0.4-0.2,0.5-0.3l-0.2,0.8h1.7
		c0.3,0,0.6-0.2,0.7-0.5l1-4.4c0-0.1,0-0.2,0.1-0.4c0-0.1,0-0.2,0-0.3C45.7,15.5,45.5,15,44.9,14.7z M42.7,19.8
		c-0.2,0.2-0.5,0.3-0.7,0.4c-0.3,0.1-0.5,0.2-0.7,0.2c-0.3,0-0.6-0.1-0.8-0.2c-0.2-0.1-0.3-0.3-0.3-0.5c0-0.3,0.1-0.5,0.2-0.7
		s0.3-0.3,0.6-0.4c0.2-0.1,0.6-0.2,0.9-0.2c0.4,0,0.7-0.1,1.1-0.1L42.7,19.8z"/>
</g>
</svg>
