<?xml version="1.0" encoding="utf-8"?>
<!-- Generator: Adobe Illustrator 14.0.0, SVG Export Plug-In . SVG Version: 6.00 Build 43363)  -->
<!DOCTYPE svg PUBLIC "-//W3C//DTD SVG 1.1//EN" "http://www.w3.org/Graphics/SVG/1.1/DTD/svg11.dtd">
<svg version="1.1" id="Layer_1" xmlns="http://www.w3.org/2000/svg" xmlns:xlink="http://www.w3.org/1999/xlink" x="0px" y="0px"
	 width="186px" height="22px" viewBox="-1160 1050 186 22" enable-background="new -1160 1050 186 22" xml:space="preserve">
<g id="Layer_1_1_">
	<path fill="#231F20" d="M-1117.9,1051.3c0,0.2,0,0.4,0,0.5c0,0.2-0.1,0.3-0.1,0.4c0,0.1-0.1,0.2-0.2,0.2c-0.1,0-0.2,0.1-0.2,0.1
		h-5.9v18.2c0,0.1,0,0.2-0.1,0.2c0,0.1-0.1,0.1-0.2,0.2c-0.1,0-0.3,0.1-0.4,0.1c-0.2,0-0.4,0-0.7,0c-0.3,0-0.5,0-0.7,0
		c-0.2,0-0.3-0.1-0.4-0.1c-0.1,0-0.2-0.1-0.2-0.2c0-0.1-0.1-0.1-0.1-0.2v-18.2h-5.9c-0.1,0-0.2,0-0.2-0.1c-0.1,0-0.1-0.1-0.2-0.2
		c0-0.1-0.1-0.2-0.1-0.4c0-0.1,0-0.3,0-0.5s0-0.4,0-0.5c0-0.2,0.1-0.3,0.1-0.4c0-0.1,0.1-0.2,0.2-0.2c0-0.1,0.1-0.1,0.2-0.1h14.6
		c0.1,0,0.2,0,0.2,0.1c0.1,0,0.1,0.1,0.2,0.2c0,0.1,0.1,0.2,0.1,0.4C-1117.9,1050.9-1117.9,1051.1-1117.9,1051.3z"/>
	<path fill="#231F20" d="M-1100,1070.7c0,0.1,0,0.2-0.1,0.2c0,0.1-0.1,0.1-0.2,0.2c-0.1,0-0.3,0.1-0.5,0.1c-0.2,0-0.5,0-0.8,0
		c-0.3,0-0.5,0-0.7,0c-0.2,0-0.3-0.1-0.4-0.1c-0.1,0-0.2-0.1-0.3-0.2c-0.1-0.1-0.1-0.2-0.2-0.3l-1.9-4.9c-0.2-0.6-0.5-1.1-0.7-1.5
		c-0.2-0.5-0.5-0.9-0.9-1.2c-0.3-0.3-0.7-0.6-1.2-0.8c-0.5-0.2-1-0.3-1.6-0.3h-1.9v8.9c0,0.1,0,0.2-0.1,0.2c0,0.1-0.1,0.1-0.2,0.2
		c-0.1,0-0.2,0.1-0.4,0.1c-0.2,0-0.4,0-0.7,0c-0.3,0-0.5,0-0.7,0s-0.3-0.1-0.4-0.1s-0.2-0.1-0.2-0.2s-0.1-0.1-0.1-0.2v-19.6
		c0-0.4,0.1-0.7,0.3-0.9c0.5-0.1,0.7-0.2,1-0.2h4.5c0.5,0,1,0,1.3,0c0.4,0,0.7,0.1,0.9,0.1c0.8,0.1,1.5,0.4,2.2,0.7
		c0.6,0.3,1.1,0.7,1.6,1.2c0.4,0.5,0.7,1,0.9,1.6c0.2,0.6,0.3,1.3,0.3,2s-0.1,1.3-0.3,1.9c-0.2,0.6-0.5,1-0.8,1.5
		c-0.4,0.4-0.8,0.8-1.3,1.1s-1.1,0.6-1.7,0.8c0.3,0.2,0.7,0.3,0.9,0.6c0.3,0.2,0.5,0.5,0.8,0.8c0.2,0.3,0.5,0.7,0.7,1.1
		c0.2,0.4,0.4,0.9,0.6,1.4l1.9,4.6c0.2,0.4,0.2,0.7,0.3,0.8C-1100,1070.5-1100,1070.6-1100,1070.7z M-1104.2,1055.9
		c0-0.8-0.2-1.5-0.6-2.1c-0.4-0.6-1-1-1.8-1.2c-0.3-0.1-0.6-0.1-0.9-0.2c-0.3,0-0.8,0-1.3,0h-2.4v7.1h2.7c0.7,0,1.4-0.1,1.9-0.3
		s1-0.4,1.3-0.7c0.4-0.3,0.6-0.7,0.8-1.1C-1104.3,1056.9-1104.2,1056.4-1104.2,1055.9z"/>
	<path fill="#231F20" d="M-1081.3,1063.2c0,1.3-0.2,2.4-0.5,3.4c-0.4,1-0.9,1.8-1.6,2.5c-0.7,0.7-1.5,1.2-2.5,1.5
		c-1,0.4-2.1,0.5-3.3,0.5c-1.1,0-2.2-0.2-3.1-0.5c-0.9-0.3-1.7-0.8-2.4-1.5c-0.7-0.6-1.2-1.5-1.5-2.4c-0.4-1-0.5-2.1-0.5-3.4v-12.7
		c0-0.1,0-0.2,0.1-0.2c0-0.1,0.1-0.1,0.2-0.2c0.1,0,0.2-0.1,0.4-0.1s0.4,0,0.7,0c0.3,0,0.5,0,0.7,0c0.2,0,0.3,0.1,0.4,0.1
		c0.1,0,0.2,0.1,0.2,0.2c0,0.1,0.1,0.1,0.1,0.2v12.5c0,1,0.1,1.8,0.3,2.5c0.2,0.7,0.6,1.3,1,1.8s1,0.8,1.6,1.1
		c0.6,0.2,1.3,0.4,2.1,0.4c0.8,0,1.5-0.1,2.1-0.4c0.6-0.2,1.2-0.6,1.6-1.1c0.4-0.5,0.8-1.1,1-1.7c0.2-0.7,0.3-1.5,0.3-2.4v-12.7
		c0-0.1,0-0.2,0.1-0.2c0-0.1,0.1-0.1,0.2-0.2c0.1,0,0.2-0.1,0.4-0.1c0.2,0,0.4,0,0.7,0s0.5,0,0.6,0c0.2,0,0.3,0.1,0.4,0.1
		s0.2,0.1,0.2,0.2c0,0.1,0.1,0.1,0.1,0.2L-1081.3,1063.2L-1081.3,1063.2z"/>
	<path fill="#231F20" d="M-1065.5,1065.1c0,1-0.2,1.8-0.5,2.6c-0.4,0.7-0.8,1.4-1.5,1.9c-0.6,0.5-1.4,0.9-2.2,1.2
		c-0.9,0.3-1.8,0.4-2.7,0.4c-0.7,0-1.3-0.1-1.9-0.2c-0.6-0.1-1.1-0.3-1.6-0.4c-0.5-0.2-0.8-0.3-1.2-0.5c-0.3-0.2-0.5-0.3-0.6-0.5
		c-0.2-0.1-0.3-0.3-0.3-0.5c-0.1-0.2-0.1-0.5-0.1-0.8c0-0.2,0-0.4,0-0.6c0-0.2,0.1-0.3,0.1-0.4c0-0.1,0.1-0.2,0.2-0.2
		c0.1,0,0.1-0.1,0.2-0.1s0.4,0.1,0.6,0.3c0.3,0.2,0.6,0.4,1,0.6c0.4,0.2,0.9,0.4,1.5,0.6c0.6,0.2,1.3,0.3,2.1,0.3
		c0.6,0,1.1-0.1,1.6-0.2c0.5-0.2,0.9-0.4,1.3-0.7c0.3-0.3,0.6-0.6,0.8-1.1c0.2-0.4,0.3-0.9,0.3-1.4c0-0.6-0.1-1.1-0.4-1.5
		c-0.3-0.4-0.6-0.8-1-1.1c-0.4-0.3-0.9-0.6-1.5-0.9c-0.6-0.3-1.1-0.5-1.7-0.8c-0.6-0.3-1.1-0.6-1.7-0.9c-0.5-0.3-1-0.7-1.5-1.2
		c-0.4-0.4-0.8-1-1.1-1.6c-0.3-0.6-0.4-1.3-0.4-2.1c0-0.9,0.2-1.6,0.5-2.3c0.3-0.7,0.7-1.2,1.3-1.7s1.2-0.8,2-1
		c0.8-0.1,1.6-0.2,2.5-0.2c0.5,0,0.9,0,1.4,0.1c0.5,0.1,0.9,0.2,1.3,0.3c0.4,0.1,0.8,0.3,1.1,0.4c0.3,0.2,0.5,0.4,0.6,0.5
		c0.1,0.1,0.2,0.2,0.2,0.2c0,0.1,0.1,0.1,0.1,0.2c0,0.1,0,0.2,0,0.3c0,0.1,0,0.3,0,0.5c0,0.2,0,0.4,0,0.5c0,0.1,0,0.3-0.1,0.4
		c0,0.1-0.1,0.2-0.1,0.2c-0.1,0-0.1,0.1-0.2,0.1s-0.3-0.1-0.5-0.2c-0.2-0.1-0.5-0.3-0.9-0.5c-0.4-0.2-0.8-0.4-1.3-0.5
		c-0.5-0.2-1-0.2-1.7-0.2c-0.6,0-1.1,0.1-1.5,0.2c-0.4,0.2-0.8,0.4-1,0.6c-0.3,0.3-0.5,0.6-0.6,0.9c-0.1,0.3-0.2,0.7-0.2,1.1
		c0,0.6,0.1,1.1,0.4,1.5c0.3,0.4,0.6,0.8,1.1,1.1c0.3,0.3,0.8,0.6,1.4,0.8c0.6,0.3,1.1,0.5,1.7,0.8c0.6,0.3,1.1,0.6,1.7,0.9
		s1.1,0.7,1.5,1.1c0.4,0.4,0.8,1,1.1,1.6C-1065.7,1063.6-1065.5,1064.3-1065.5,1065.1z"/>
	<path fill="#231F20" d="M-1048.2,1051.3c0,0.2,0,0.4,0,0.5c0,0.2-0.1,0.3-0.1,0.4c0,0.1-0.1,0.2-0.2,0.2s-0.1,0.1-0.2,0.1h-5.9
		v18.2c0,0.1,0,0.2-0.1,0.2c0,0.1-0.1,0.1-0.2,0.2c-0.1,0-0.2,0.1-0.4,0.1s-0.4,0-0.7,0s-0.5,0-0.7,0s-0.3-0.1-0.4-0.1
		c-0.1,0-0.2-0.1-0.2-0.2c0-0.1-0.1-0.1-0.1-0.2v-18.2h-5.9c-0.1,0-0.2,0-0.2-0.1c-0.1,0-0.1-0.1-0.2-0.2c0-0.1-0.1-0.2-0.1-0.4
		c0-0.1,0-0.3,0-0.5s0-0.4,0-0.5c0-0.2,0.1-0.3,0.1-0.4c0-0.1,0.1-0.2,0.2-0.2c0-0.1,0.1-0.1,0.2-0.1h14.6c0.1,0,0.2,0,0.2,0.1
		c0.1,0,0.1,0.1,0.2,0.2c0,0.1,0.1,0.2,0.1,0.4C-1048.2,1050.9-1048.2,1051.1-1048.2,1051.3z"/>
	<path fill="#929497" d="M-1032,1056.2c0,1.1-0.2,2-0.5,2.8s-0.8,1.6-1.5,2.2c-0.6,0.6-1.4,1.1-2.4,1.4c-0.9,0.3-2.1,0.5-3.4,0.5
		h-2.4v7.6c0,0.1,0,0.2-0.1,0.2c0,0.1-0.1,0.1-0.2,0.2c-0.1,0-0.2,0.1-0.4,0.1c-0.2,0-0.4,0-0.7,0c-0.3,0-0.5,0-0.7,0
		s-0.3-0.1-0.4-0.1c-0.1,0-0.2-0.1-0.2-0.2c0-0.1-0.1-0.1-0.1-0.2v-19.4c0-0.4,0.1-0.7,0.3-0.9c0.2-0.2,0.5-0.3,0.8-0.3h4.5
		c0.5,0,0.9,0,1.3,0.1c0.4,0,0.9,0.1,1.5,0.2c0.6,0.1,1.1,0.4,1.7,0.7c0.6,0.3,1.1,0.8,1.5,1.3c0.4,0.5,0.7,1.1,0.9,1.7
		C-1032.1,1054.7-1032,1055.5-1032,1056.2z M-1034.9,1056.5c0-0.9-0.2-1.6-0.5-2.1c-0.3-0.6-0.7-1-1.2-1.3c-0.5-0.3-1-0.5-1.5-0.5
		c-0.5-0.1-1-0.1-1.5-0.1h-2.6v8.4h2.5c0.8,0,1.5-0.1,2.1-0.3c0.6-0.2,1-0.5,1.4-0.9c0.4-0.4,0.7-0.8,0.9-1.4
		C-1035,1057.7-1034.9,1057.1-1034.9,1056.5z"/>
	<path fill="#929497" d="M-1025.4,1070.7c0,0.1,0,0.2-0.1,0.2c0,0.1-0.1,0.1-0.2,0.2c-0.1,0-0.2,0.1-0.4,0.1c-0.2,0-0.4,0-0.7,0
		s-0.5,0-0.7,0s-0.3-0.1-0.4-0.1c-0.1,0-0.2-0.1-0.2-0.2c0-0.1-0.1-0.1-0.1-0.2v-20c0-0.1,0-0.2,0.1-0.2c0-0.1,0.1-0.1,0.2-0.2
		c0.1,0,0.3-0.1,0.4-0.1c0.2,0,0.4,0,0.6,0c0.3,0,0.5,0,0.7,0s0.3,0.1,0.4,0.1c0.1,0,0.2,0.1,0.2,0.2s0.1,0.1,0.1,0.2
		L-1025.4,1070.7L-1025.4,1070.7z"/>
	<path fill="#929497" d="M-1009.3,1070c0,0.2,0,0.4,0,0.5s-0.1,0.3-0.1,0.4c0,0.1-0.1,0.2-0.2,0.2c-0.1,0-0.2,0.1-0.3,0.1h-9.3
		c-0.2,0-0.5-0.1-0.7-0.3c-0.2-0.2-0.3-0.5-0.3-0.9v-19.4c0-0.1,0-0.2,0.1-0.2c0-0.1,0.1-0.1,0.2-0.2c0.1,0,0.3-0.1,0.4-0.1
		c0.2,0,0.4,0,0.7,0s0.5,0,0.7,0c0.2,0,0.3,0.1,0.4,0.1c0.1,0,0.2,0.1,0.2,0.2c0,0.1,0.1,0.1,0.1,0.2v18.2h7.5c0.1,0,0.2,0,0.3,0.1
		c0.1,0,0.1,0.1,0.2,0.2c0.1,0.1,0.1,0.2,0.1,0.4C-1009.3,1069.6-1009.3,1069.8-1009.3,1070z"/>
	<path fill="#929497" d="M-990.3,1060.4c0,1.7-0.2,3.1-0.6,4.5c-0.4,1.3-1,2.5-1.7,3.4c-0.8,0.9-1.7,1.6-2.9,2.1s-2.5,0.8-4.1,0.8
		c-1.5,0-2.9-0.2-4-0.7c-1.1-0.5-2.1-1.1-2.8-2c-0.7-0.9-1.3-2-1.6-3.3c-0.4-1.3-0.5-2.8-0.5-4.5c0-1.6,0.2-3.1,0.6-4.4
		c0.4-1.3,1-2.4,1.8-3.4c0.8-0.9,1.8-1.6,2.9-2.1c1.2-0.5,2.5-0.8,4.1-0.8c1.5,0,2.8,0.2,3.9,0.7c1.1,0.5,2,1.1,2.8,2
		c0.7,0.9,1.3,1.9,1.7,3.2C-990.5,1057.3-990.3,1058.7-990.3,1060.4z M-993.2,1060.6c0-1.2-0.1-2.2-0.3-3.2s-0.5-1.9-1-2.6
		s-1.1-1.3-1.9-1.7c-0.8-0.4-1.8-0.6-3-0.6c-1.2,0-2.2,0.2-3,0.7c-0.8,0.4-1.4,1-1.9,1.8c-0.5,0.7-0.9,1.6-1.1,2.6
		c-0.2,1-0.3,2-0.3,3.1c0,1.2,0.1,2.3,0.3,3.3c0.2,1,0.5,1.9,1,2.6s1.1,1.3,1.9,1.7c0.8,0.4,1.8,0.6,3,0.6s2.2-0.2,3-0.7
		c0.8-0.4,1.5-1,2-1.8c0.5-0.8,0.8-1.6,1.1-2.6C-993.3,1062.7-993.2,1061.7-993.2,1060.6z"/>
	<path fill="#929497" d="M-974,1051.3c0,0.2,0,0.4,0,0.5c0,0.2-0.1,0.3-0.1,0.4c0,0.1-0.1,0.2-0.2,0.2c-0.1,0-0.1,0.1-0.2,0.1h-5.9
		v18.2c0,0.1,0,0.2-0.1,0.2c0,0.1-0.1,0.1-0.2,0.2c-0.1,0-0.3,0.1-0.4,0.1c-0.2,0-0.4,0-0.7,0s-0.5,0-0.7,0s-0.3-0.1-0.4-0.1
		c-0.1,0-0.2-0.1-0.2-0.2c0-0.1-0.1-0.1-0.1-0.2v-18.2h-5.9c-0.1,0-0.2,0-0.2-0.1c-0.1,0-0.1-0.1-0.2-0.2c0-0.1-0.1-0.2-0.1-0.4
		c0-0.1,0-0.3,0-0.5s0-0.4,0-0.5c0-0.2,0.1-0.3,0.1-0.4c0-0.1,0.1-0.2,0.2-0.2c0.1,0,0.1-0.1,0.2-0.1h14.6c0.1,0,0.2,0,0.2,0.1
		c0.1,0,0.1,0.1,0.2,0.2c0,0.1,0.1,0.2,0.1,0.4C-974,1050.9-974,1051.1-974,1051.3z"/>
	<path fill="#F9A21E" d="M-1160,1050.5v8.9c0,0,6.7,3.2,10.2,9c0,0,1.5-12.7,10-17.9H-1160z"/>
	
		<linearGradient id="SVGID_1_" gradientUnits="userSpaceOnUse" x1="-1982.9595" y1="-293.9365" x2="-1982.9595" y2="-286.1975" gradientTransform="matrix(1 0 0 -1 833.0098 764.4004)">
		<stop  offset="0" style="stop-color:#FFFFFF"/>
		<stop  offset="1" style="stop-color:#F9A21E"/>
	</linearGradient>
	<path opacity="0.5" fill="url(#SVGID_1_)" enable-background="new    " d="M-1159.9,1050.6h19.9c0,0-3.3,1.1-6.8,7.6
		c0,0-7.7,0.8-13.1-1.6V1050.6z"/>
	<g>
		
			<linearGradient id="SVGID_2_" gradientUnits="userSpaceOnUse" x1="-1972.8096" y1="-286.0996" x2="-1972.8096" y2="-286.0996" gradientTransform="matrix(1 0 0 -1 833.0098 764.4004)">
			<stop  offset="0" style="stop-color:#484848"/>
			<stop  offset="1" style="stop-color:#000000"/>
		</linearGradient>
		<path fill="url(#SVGID_2_)" d="M-1139.8,1050.5L-1139.8,1050.5"/>
		
			<linearGradient id="SVGID_3_" gradientUnits="userSpaceOnUse" x1="-1982.9097" y1="-286.1602" x2="-1982.9097" y2="-306.1991" gradientTransform="matrix(1 0 0 -1 833.0098 764.4004)">
			<stop  offset="0" style="stop-color:#484848"/>
			<stop  offset="1" style="stop-color:#000000"/>
		</linearGradient>
		<path fill="url(#SVGID_3_)" d="M-1149.8,1068.3c-3.4-5.7-10.2-9-10.2-9v7.4c5.6,0.3,9.1,3.9,9.1,3.9h2.4c0,0,3.8-10.2,8.7-11.5
			v-8.6l0,0C-1148.3,1055.7-1149.8,1068.3-1149.8,1068.3z"/>
	</g>
	
		<linearGradient id="SVGID_4_" gradientUnits="userSpaceOnUse" x1="-1977.1597" y1="-306.2705" x2="-1977.1597" y2="-294.748" gradientTransform="matrix(1 0 0 -1 833.0098 764.4004)">
		<stop  offset="0" style="stop-color:#E37A26"/>
		<stop  offset="0.4725" style="stop-color:#F9A21E"/>
	</linearGradient>
	<path fill="url(#SVGID_4_)" d="M-1148.5,1070.7h8.7v-11.6C-1144.7,1060.5-1148.5,1070.7-1148.5,1070.7z"/>
	
		<linearGradient id="SVGID_5_" gradientUnits="userSpaceOnUse" x1="-1988.4595" y1="-306.2783" x2="-1988.4595" y2="-302.331" gradientTransform="matrix(1 0 0 -1 833.0098 764.4004)">
		<stop  offset="0" style="stop-color:#E37A26"/>
		<stop  offset="0.4725" style="stop-color:#F9A21E"/>
	</linearGradient>
	<path fill="url(#SVGID_5_)" d="M-1160,1066.7v3.9h9.1C-1150.9,1070.7-1154.4,1067-1160,1066.7z"/>
</g>
<g id="Layer_3">
</g>
</svg>
