<?xml version="1.0" encoding="utf-8"?>
<!-- Generator: Adobe Illustrator 14.0.0, SVG Export Plug-In . SVG Version: 6.00 Build 43363)  -->
<!DOCTYPE svg PUBLIC "-//W3C//DTD SVG 1.1//EN" "http://www.w3.org/Graphics/SVG/1.1/DTD/svg11.dtd">
<svg version="1.1" id="Layer_1" xmlns="http://www.w3.org/2000/svg" xmlns:xlink="http://www.w3.org/1999/xlink" x="0px" y="0px"
	 width="151px" height="189.9px" viewBox="0 0 151 189.9" enable-background="new 0 0 151 189.9" xml:space="preserve">
<g>
	<rect x="58.5" y="87.7" fill="#666666" width="4.9" height="4.9"/>
	<rect x="58.5" y="146.1" fill="#666666" width="4.9" height="4.9"/>
	<rect x="58.5" y="175.3" fill="#666666" width="4.9" height="4.9"/>
	<rect x="58.5" y="155.9" fill="#666666" width="4.9" height="4.9"/>
	<rect x="58.5" y="48.7" fill="#666666" width="4.9" height="4.9"/>
	<rect x="58.5" y="29.2" fill="#666666" width="4.9" height="4.9"/>
	<rect x="58.5" y="39" fill="#666666" width="4.9" height="4.9"/>
	<rect x="58.5" y="58.4" fill="#666666" width="4.9" height="4.9"/>
	<rect x="58.5" y="185.1" fill="#666666" width="4.9" height="4.9"/>
	<rect x="48.7" y="68.2" fill="#666666" width="4.9" height="4.9"/>
	<rect x="48.7" y="19.5" fill="#666666" width="4.9" height="4.9"/>
	<rect x="58.5" y="19.5" fill="#666666" width="4.9" height="4.9"/>
	<rect x="48.7" y="126.6" fill="#666666" width="4.9" height="4.9"/>
	<rect x="48.7" y="116.9" fill="#666666" width="4.9" height="4.9"/>
	<rect x="48.7" y="87.7" fill="#666666" width="4.9" height="4.9"/>
	<rect x="48.7" y="29.2" fill="#666666" width="4.9" height="4.9"/>
	<rect x="48.7" y="48.7" fill="#666666" width="4.9" height="4.9"/>
	<rect x="48.7" y="39" fill="#666666" width="4.9" height="4.9"/>
	<rect x="48.7" y="97.4" fill="#666666" width="4.9" height="4.9"/>
	<rect x="68.2" y="29.2" fill="#666666" width="4.9" height="4.9"/>
	<rect x="68.2" y="68.2" fill="#666666" width="4.9" height="4.9"/>
	<rect x="77.9" y="165.6" fill="#666666" width="4.9" height="4.9"/>
	<rect x="58.5" y="9.7" fill="#666666" width="4.9" height="4.9"/>
	<rect x="68.2" y="39" fill="#666666" width="4.9" height="4.9"/>
	<rect x="68.2" y="19.5" fill="#666666" width="4.9" height="4.9"/>
	<rect x="68.2" fill="#666666" width="4.9" height="4.9"/>
	<rect x="77.9" y="175.3" fill="#666666" width="4.9" height="4.9"/>
	<rect x="68.2" y="9.7" fill="#666666" width="4.9" height="4.9"/>
	<rect x="68.2" y="58.4" fill="#666666" width="4.9" height="4.9"/>
	<rect x="68.2" y="165.6" fill="#666666" width="4.9" height="4.9"/>
	<rect x="68.2" y="175.3" fill="#666666" width="4.9" height="4.9"/>
	<rect x="68.2" y="146.1" fill="#666666" width="4.9" height="4.9"/>
	<rect x="58.5" fill="#666666" width="4.9" height="4.9"/>
	<rect x="68.2" y="116.9" fill="#666666" width="4.9" height="4.9"/>
	<rect x="68.2" y="126.6" fill="#666666" width="4.9" height="4.9"/>
	<rect x="68.2" y="87.7" fill="#666666" width="4.9" height="4.9"/>
	<rect x="68.2" y="77.9" fill="#666666" width="4.9" height="4.9"/>
	<rect x="68.2" y="48.7" fill="#666666" width="4.9" height="4.9"/>
	<rect x="19.5" y="146.1" fill="#666666" width="4.9" height="4.9"/>
	<rect x="9.7" y="97.4" fill="#666666" width="4.9" height="4.9"/>
	<rect x="9.7" y="107.1" fill="#666666" width="4.9" height="4.9"/>
	<rect x="9.7" y="116.9" fill="#666666" width="4.9" height="4.9"/>
	<rect x="9.7" y="126.6" fill="#666666" width="4.9" height="4.9"/>
	<rect x="19.5" y="116.9" fill="#666666" width="4.9" height="4.9"/>
	<rect x="19.5" y="136.4" fill="#666666" width="4.9" height="4.9"/>
	<rect x="19.5" y="107.1" fill="#666666" width="4.9" height="4.9"/>
	<rect x="19.5" y="126.6" fill="#666666" width="4.9" height="4.9"/>
	<rect y="136.4" fill="#666666" width="4.9" height="4.9"/>
	<rect x="9.7" y="136.4" fill="#666666" width="4.9" height="4.9"/>
	<rect x="19.5" y="97.4" fill="#666666" width="4.9" height="4.9"/>
	<rect y="155.9" fill="#666666" width="4.9" height="4.9"/>
	<rect y="116.9" fill="#666666" width="4.9" height="4.9"/>
	<rect y="146.1" fill="#666666" width="4.9" height="4.9"/>
	<rect x="9.7" y="155.9" fill="#666666" width="4.9" height="4.9"/>
	<rect x="9.7" y="146.1" fill="#666666" width="4.9" height="4.9"/>
	<rect y="107.1" fill="#666666" width="4.9" height="4.9"/>
	<rect y="97.4" fill="#666666" width="4.9" height="4.9"/>
	<rect x="19.5" y="87.7" fill="#666666" width="4.9" height="4.9"/>
	<rect x="39" y="116.9" fill="#666666" width="4.9" height="4.9"/>
	<rect x="39" y="107.1" fill="#666666" width="4.9" height="4.9"/>
	<rect x="39" y="126.6" fill="#666666" width="4.9" height="4.9"/>
	<rect x="39" y="97.4" fill="#666666" width="4.9" height="4.9"/>
	<rect x="39" y="9.7" fill="#666666" width="4.9" height="4.9"/>
	<rect x="39" y="87.7" fill="#666666" width="4.9" height="4.9"/>
	<rect x="39" y="29.2" fill="#666666" width="4.9" height="4.9"/>
	<rect x="39" y="136.4" fill="#666666" width="4.9" height="4.9"/>
	<rect x="39" y="77.9" fill="#666666" width="4.9" height="4.9"/>
	<rect x="29.2" y="97.4" fill="#666666" width="4.9" height="4.9"/>
	<rect x="29.2" y="126.6" fill="#666666" width="4.9" height="4.9"/>
	<rect x="29.2" y="77.9" fill="#666666" width="4.9" height="4.9"/>
	<rect x="19.5" y="77.9" fill="#666666" width="4.9" height="4.9"/>
	<rect x="29.2" y="116.9" fill="#666666" width="4.9" height="4.9"/>
	<rect x="29.2" y="136.4" fill="#666666" width="4.9" height="4.9"/>
	<rect x="29.2" y="87.7" fill="#666666" width="4.9" height="4.9"/>
	<rect x="29.2" y="107.1" fill="#666666" width="4.9" height="4.9"/>
	<rect x="39" fill="#666666" width="4.9" height="4.9"/>
	<rect x="97.4" y="155.9" fill="#666666" width="4.9" height="4.9"/>
	<rect x="107.1" y="97.4" fill="#666666" width="4.9" height="4.9"/>
	<rect x="107.1" y="107.1" fill="#666666" width="4.9" height="4.9"/>
	<rect x="107.1" y="116.9" fill="#666666" width="4.9" height="4.9"/>
	<rect x="107.1" y="126.6" fill="#666666" width="4.9" height="4.9"/>
	<rect x="116.9" y="155.9" fill="#666666" width="4.9" height="4.9"/>
	<rect x="116.9" y="165.6" fill="#666666" width="4.9" height="4.9"/>
	<rect x="107.1" y="87.7" fill="#666666" width="4.9" height="4.9"/>
	<rect x="107.1" y="136.4" fill="#666666" width="4.9" height="4.9"/>
	<rect x="107.1" y="77.9" fill="#666666" width="4.9" height="4.9"/>
	<rect x="107.1" y="146.1" fill="#666666" width="4.9" height="4.9"/>
	<rect x="97.4" y="87.7" fill="#666666" width="4.9" height="4.9"/>
	<rect x="97.4" y="77.9" fill="#666666" width="4.9" height="4.9"/>
	<rect x="116.9" y="146.1" fill="#666666" width="4.9" height="4.9"/>
	<rect x="97.4" y="68.2" fill="#666666" width="4.9" height="4.9"/>
	<rect x="97.4" y="97.4" fill="#666666" width="4.9" height="4.9"/>
	<rect x="107.1" y="155.9" fill="#666666" width="4.9" height="4.9"/>
	<rect x="97.4" y="29.2" fill="#666666" width="4.9" height="4.9"/>
	<rect x="97.4" y="107.1" fill="#666666" width="4.9" height="4.9"/>
	<rect x="97.4" y="19.5" fill="#666666" width="4.9" height="4.9"/>
	<rect x="107.1" y="165.6" fill="#666666" width="4.9" height="4.9"/>
	<rect x="136.4" y="165.6" fill="#666666" width="4.9" height="4.9"/>
	<rect x="126.6" y="107.1" fill="#666666" width="4.9" height="4.9"/>
	<rect x="136.4" y="146.1" fill="#666666" width="4.9" height="4.9"/>
	<rect x="126.6" y="116.9" fill="#666666" width="4.9" height="4.9"/>
	<rect x="116.9" y="136.4" fill="#666666" width="4.9" height="4.9"/>
	<rect x="146.1" y="126.6" fill="#666666" width="4.9" height="4.9"/>
	<rect x="146.1" y="136.4" fill="#666666" width="4.9" height="4.9"/>
	<rect x="136.4" y="136.4" fill="#666666" width="4.9" height="4.9"/>
	<rect x="136.4" y="126.6" fill="#666666" width="4.9" height="4.9"/>
	<rect x="126.6" y="126.6" fill="#666666" width="4.9" height="4.9"/>
	<rect x="116.9" y="107.1" fill="#666666" width="4.9" height="4.9"/>
	<rect x="116.9" y="97.4" fill="#666666" width="4.9" height="4.9"/>
	<rect x="116.9" y="116.9" fill="#666666" width="4.9" height="4.9"/>
	<rect x="116.9" y="126.6" fill="#666666" width="4.9" height="4.9"/>
	<rect x="126.6" y="136.4" fill="#666666" width="4.9" height="4.9"/>
	<rect x="126.6" y="165.6" fill="#666666" width="4.9" height="4.9"/>
	<rect x="126.6" y="146.1" fill="#666666" width="4.9" height="4.9"/>
	<rect x="126.6" y="155.9" fill="#666666" width="4.9" height="4.9"/>
	<rect x="77.9" y="136.4" fill="#666666" width="4.9" height="4.9"/>
	<rect x="77.9" y="19.5" fill="#666666" width="4.9" height="4.9"/>
	<rect x="77.9" y="29.2" fill="#666666" width="4.9" height="4.9"/>
	<rect x="77.9" y="9.7" fill="#666666" width="4.9" height="4.9"/>
	<rect x="77.9" y="39" fill="#666666" width="4.9" height="4.9"/>
	<rect x="87.7" y="155.9" fill="#666666" width="4.9" height="4.9"/>
	<rect x="87.7" y="146.1" fill="#666666" width="4.9" height="4.9"/>
	<rect x="77.9" y="48.7" fill="#666666" width="4.9" height="4.9"/>
	<rect x="77.9" fill="#666666" width="4.9" height="4.9"/>
	<rect x="87.7" y="165.6" fill="#666666" width="4.9" height="4.9"/>
	<rect x="77.9" y="126.6" fill="#666666" width="4.9" height="4.9"/>
	<rect x="87.7" y="136.4" fill="#666666" width="4.9" height="4.9"/>
	<rect x="77.9" y="58.4" fill="#666666" width="4.9" height="4.9"/>
	<rect x="77.9" y="116.9" fill="#666666" width="4.9" height="4.9"/>
	<rect x="77.9" y="146.1" fill="#666666" width="4.9" height="4.9"/>
	<rect x="77.9" y="155.9" fill="#666666" width="4.9" height="4.9"/>
	<rect x="77.9" y="68.2" fill="#666666" width="4.9" height="4.9"/>
	<rect x="77.9" y="77.9" fill="#666666" width="4.9" height="4.9"/>
	<rect x="77.9" y="97.4" fill="#666666" width="4.9" height="4.9"/>
	<rect x="97.4" y="175.3" fill="#666666" width="4.9" height="4.9"/>
	<rect x="87.7" y="19.5" fill="#666666" width="4.9" height="4.9"/>
	<rect x="97.4" y="116.9" fill="#666666" width="4.9" height="4.9"/>
	<rect x="87.7" fill="#666666" width="4.9" height="4.9"/>
	<rect x="87.7" y="39" fill="#666666" width="4.9" height="4.9"/>
	<rect x="87.7" y="29.2" fill="#666666" width="4.9" height="4.9"/>
	<rect x="97.4" y="126.6" fill="#666666" width="4.9" height="4.9"/>
	<rect x="97.4" y="136.4" fill="#666666" width="4.9" height="4.9"/>
	<rect x="97.4" y="165.6" fill="#666666" width="4.9" height="4.9"/>
	<rect x="97.4" y="146.1" fill="#666666" width="4.9" height="4.9"/>
	<rect x="87.7" y="126.6" fill="#666666" width="4.9" height="4.9"/>
	<rect x="87.7" y="107.1" fill="#666666" width="4.9" height="4.9"/>
	<rect x="87.7" y="87.7" fill="#666666" width="4.9" height="4.9"/>
	<rect x="87.7" y="97.4" fill="#666666" width="4.9" height="4.9"/>
	<rect x="87.7" y="116.9" fill="#666666" width="4.9" height="4.9"/>
	<rect x="87.7" y="68.2" fill="#666666" width="4.9" height="4.9"/>
	<rect x="87.7" y="58.4" fill="#666666" width="4.9" height="4.9"/>
	<rect x="87.7" y="77.9" fill="#666666" width="4.9" height="4.9"/>
	<rect x="87.7" y="48.7" fill="#666666" width="4.9" height="4.9"/>
</g>
</svg>
