<?xml version="1.0" encoding="utf-8"?>
<!-- Generator: Adobe Illustrator 14.0.0, SVG Export Plug-In . SVG Version: 6.00 Build 43363)  -->
<!DOCTYPE svg PUBLIC "-//W3C//DTD SVG 1.1//EN" "http://www.w3.org/Graphics/SVG/1.1/DTD/svg11.dtd">
<svg version="1.1" id="Layer_1" xmlns="http://www.w3.org/2000/svg" xmlns:xlink="http://www.w3.org/1999/xlink" x="0px" y="0px"
	 width="1218px" height="264px" viewBox="0 0 1218 264" enable-background="new 0 0 1218 264" xml:space="preserve">
<path fill="#006C6E" d="M886.1,132.3c-1.5-0.8-2.9-1.2-4.3-1.2c-2.3,0-4.5,0.5-6.4,1.4c-1.9,0.9-3.6,2.1-5.1,3.6
	c-1.5,1.5-2.9,3.2-4.1,5c-1.2,1.9-2.3,3.7-3.2,5.6v-14.9l-2.8-0.1l-13,4.4v0.7c1.1,0.3,2,0.4,2.7,0.4c0.7,0,1.3,0,1.8,0.1
	c0.4,0.1,0.8,0.5,1,1.1c0.2,0.6,0.3,1.7,0.3,3.3v53.9c0,2.7-0.3,4.4-1,5.1c-0.7,0.7-2.3,1.1-4.8,1.1v1.2h23.5v-1.2
	c-1.4,0-2.5,0-3.4-0.1c-0.9,0-1.6-0.2-2.1-0.6c-0.5-0.4-0.9-0.9-1.2-1.7c-0.2-0.8-0.4-1.9-0.4-3.4v-35.7c0-2.3,0-4.5,0-6.8
	c0-2.4,0.7-4.6,2.1-6.6c0.5-0.8,1.2-1.7,2.1-2.8c0.9-1.1,1.9-2.1,2.9-3.1c1.1-1,2.2-1.8,3.3-2.5c1.1-0.7,2.2-1,3.2-1
	c1.1,0,1.9,0.4,2.6,1.2s1.2,1.7,1.7,2.6c0.5,0.9,1,1.6,1.5,2.3c0.5,0.6,1.3,0.8,2.3,0.5c0.8-0.3,1.4-0.8,1.9-1.5
	c0.5-0.7,0.9-1.4,1.2-2.3c0.3-0.8,0.5-1.7,0.5-2.4c0-0.8,0.1-1.4,0.1-1.9C888.4,134.3,887.6,133.1,886.1,132.3z"/>
<path fill="#006C6E" d="M1161.9,147.3c-3.3-5.5-7.4-9.6-12.4-12.4c-5-2.8-10.4-4.1-16.1-4.1c-5.7,0-11,1.4-16,4.1
	c-5,2.7-9.1,6.8-12.4,12.3c-3.3,5.5-4.9,12.4-4.9,20.7c0,8.3,1.6,15.1,4.9,20.6c3.3,5.5,7.4,9.5,12.4,12.3c5,2.7,10.3,4,16.1,4
	c5.7,0,11.1-1.4,16.1-4.1c5-2.7,9.1-6.8,12.4-12.3c3.3-5.5,4.9-12.3,4.9-20.5C1166.8,159.7,1165.2,152.9,1161.9,147.3z
	 M1152.7,185.5c-2.1,4.6-4.8,8.1-8,10.3c-3.2,2.3-6.7,3.3-10.6,3.2c-3.8-0.2-7.4-1.4-10.7-3.8c-3.3-2.4-6.1-5.8-8.4-10.4
	c-2.3-4.6-3.5-10.2-3.6-16.9c-0.1-7.2,0.9-13.1,2.9-17.8c2.1-4.7,4.7-8.1,7.9-10.3c3.2-2.2,6.8-3.2,10.6-3c3.8,0.2,7.4,1.5,10.7,3.9
	c3.3,2.4,6.1,5.9,8.4,10.5c2.3,4.6,3.5,10.2,3.7,16.8C1155.7,175,1154.8,180.8,1152.7,185.5z"/>
<path fill="#006C6E" d="M604.6,112.8c1.6,0,3-0.6,4.3-1.7c1.3-1.1,1.9-2.8,1.9-5.1c0-2.3-0.6-4-1.9-5.1c-1.3-1.1-2.7-1.7-4.3-1.7
	c-1.6,0-3,0.6-4.3,1.7c-1.3,1.1-1.9,2.8-1.9,5.1c0,2.3,0.6,4,1.9,5.1C601.6,112.2,603,112.8,604.6,112.8z"/>
<path fill="#006C6E" d="M1085.5,200c-0.6-1.2-0.9-2.5-0.9-3.9v-40.3c0-3.3-0.4-6.5-1.2-9.4c-0.8-3-2-5.6-3.6-7.8
	c-1.6-2.3-3.7-4.1-6.3-5.4c-2.6-1.3-5.7-2-9.3-2c-5.3,0-9.7,1.2-13.3,3.8c-3.6,2.5-6.8,5.8-9.6,10v-13l-2.8-0.1l-12.6,4.4v1.5
	c1,0.3,1.8,0.4,2.5,0.2c0.7-0.1,1.2-0.2,1.6-0.1c0.4,0,0.7,0.3,0.9,0.9c0.2,0.5,0.3,1.6,0.3,3.2v53.9c0,2.5-0.2,4.1-0.7,4.9
	c-0.4,0.8-1.9,1.3-4.3,1.3v1.2h18.8v-1.2c-2,0-3-0.5-3.1-1.6c-0.1-1.1-0.1-2.5-0.1-4.1v-40.2c0-0.4,0.2-1.1,0.5-2.2
	c0.3-1.1,0.6-1.8,0.8-2.2c1.4-3.7,3.5-6.8,6.5-9.1c3-2.3,6.5-3.5,10.6-3.5c2.4,0,4.6,0.5,6.3,1.4c1.8,0.9,3.2,2.2,4.3,3.8
	c1.1,1.6,1.9,3.4,2.4,5.5c0.5,2.1,0.7,4.2,0.7,6.5v39.6c0,2.6-0.2,4.2-0.7,5c-0.5,0.8-2,1.2-4.6,1.2v1.2h20.1v-1.2
	C1087.2,201.8,1086.1,201.2,1085.5,200z"/>
<path fill="#006C6E" d="M370.3,165.9c-1.3-2.8-3-5.2-5.1-7.3c-2.2-2.1-4.7-3.8-7.5-5.1c-2.9-1.3-5.9-2.3-9.2-2.9
	c6.2-1.4,10.9-3.7,14.4-7.1c3.4-3.4,5.1-8.3,5.1-14.8c0-5.1-1-9.4-3.1-12.7c-2.1-3.4-4.7-6-8-7.9c-3.3-1.9-7-3.2-11.2-4
	c-4.2-0.7-8.5-1.1-12.8-1.1h-34.5v1.5c1.6,0,2.9,0,3.9,0.1c1,0.1,1.9,0.4,2.5,0.8c0.6,0.4,1.1,1.2,1.3,2.1c0.2,1,0.4,2.4,0.4,4.1
	v82.5c0,1.8-0.1,3.1-0.4,4.1c-0.2,1-0.7,1.7-1.2,2.1c-0.6,0.5-1.4,0.7-2.4,0.8c-1,0.1-2.3,0.1-3.9,0.1v1.5h37.4
	c4.4,0,8.8-0.5,13.1-1.4c4.3-0.9,8.2-2.5,11.7-4.7c3.4-2.2,6.2-5,8.3-8.5c2.1-3.5,3.2-7.8,3.2-13.1
	C372.2,171.9,371.5,168.7,370.3,165.9z M319.1,112.1c0.6-0.7,1.4-1.2,2.4-1.5c1-0.3,2.1-0.5,3.3-0.6c1.2-0.1,2.3-0.1,3.5-0.1
	c1.2,0.1,2.1,0.1,2.9,0.1c3,0,6,0.3,9,0.9s5.5,1.6,7.8,3c2.3,1.4,4.1,3.4,5.5,5.8c1.4,2.4,2.1,5.4,2.1,8.9c0,3.4-0.6,6.4-1.8,8.7
	c-1.2,2.4-2.8,4.3-4.8,5.8c-2.1,1.5-4.5,2.5-7.2,3.2c-2.8,0.6-5.6,1-8.7,1h-14.1V112.1z M356.3,185.7c-1.6,2.6-3.7,4.7-6.4,6.3
	c-2.6,1.6-5.6,2.7-9,3.2c-3.3,0.6-6.7,0.9-10,0.9c-0.9,0-1.9,0-3.1,0c-1.2,0-2.4-0.1-3.5-0.2c-1.2-0.1-2.3-0.5-3.2-1
	c-1-0.5-1.7-1.2-2.2-2.2v-38.1h7.5c3.6,0,7.4,0.3,11.2,0.7c3.9,0.5,7.3,1.5,10.4,3c3.1,1.5,5.6,3.6,7.6,6.4c2,2.8,3,6.4,3,11.1
	C358.7,179.7,357.9,183.1,356.3,185.7z"/>
<path fill="#006C6E" d="M1218,136c-0.2-1.7-1-2.9-2.6-3.7c-1.5-0.8-3-1.2-4.3-1.2c-2.3,0-4.5,0.5-6.4,1.4s-3.6,2.1-5.1,3.6
	c-1.5,1.5-2.9,3.2-4.1,5c-1.2,1.9-2.3,3.7-3.2,5.6v-14.9l-2.8-0.1l-13.1,4.4v0.7c1.1,0.3,2,0.4,2.7,0.4c0.7,0,1.3,0,1.8,0.1
	c0.4,0.1,0.7,0.5,0.9,1.1c0.2,0.6,0.3,1.7,0.3,3.3v53.9c0,2.7-0.3,4.4-1,5.1c-0.7,0.7-2.3,1.1-4.8,1.1v1.2h23.5v-1.2
	c-1.4,0-2.5,0-3.4-0.1c-0.9,0-1.6-0.2-2.1-0.6c-0.5-0.4-0.9-0.9-1.2-1.7c-0.2-0.8-0.4-1.9-0.4-3.4v-35.7c0-2.3,0-4.5,0-6.8
	c0-2.4,0.7-4.6,2.1-6.6c0.5-0.8,1.2-1.7,2.1-2.8c0.9-1.1,1.9-2.1,2.9-3.1c1.1-1,2.2-1.8,3.3-2.5c1.1-0.7,2.2-1,3.2-1
	c1.1,0,1.9,0.4,2.6,1.2c0.6,0.8,1.2,1.7,1.7,2.6c0.5,0.9,1,1.6,1.5,2.3c0.5,0.6,1.3,0.8,2.3,0.5c0.8-0.3,1.4-0.8,1.9-1.5
	c0.5-0.7,0.9-1.4,1.2-2.3c0.3-0.8,0.5-1.7,0.5-2.4C1218,137.1,1218,136.5,1218,136z"/>
<path fill="#006C6E" d="M444.5,163c-0.4-4.1-1.1-8.1-2.2-12c-1.1-3.8-2.7-7.2-4.8-10.2c-2.1-2.9-4.8-5.3-8.1-7.1
	c-3.3-1.8-7.3-2.7-12.1-2.7c-5.3,0-9.9,1.1-13.7,3.3c-3.9,2.2-7.1,5.1-9.6,8.7c-2.5,3.6-4.4,7.7-5.7,12.3c-1.2,4.6-1.8,9.2-1.8,14
	c0,4.7,0.6,9.2,1.7,13.5c1.1,4.3,2.9,8,5.3,11.2c2.4,3.2,5.5,5.7,9.2,7.6c3.7,1.9,8.2,2.8,13.4,2.8c5.8,0,11.1-1.3,16.1-3.9
	c4.9-2.6,8.8-6.5,11.5-11.7l-1.5-2.2c-1.1,1.8-2.5,3.2-4.2,4.4c-1.7,1.1-3.5,2-5.5,2.7c-2,0.6-4,1.1-6.1,1.4
	c-2.1,0.3-4.1,0.4-5.9,0.4c-4.4,0-8.1-0.9-11.2-2.7c-3.1-1.8-5.6-4.1-7.5-7.1c-1.9-3-3.3-6.3-4.3-10c-0.9-3.7-1.4-7.4-1.5-11.3h48.7
	L444.5,163z M396.2,158.4c0.4-2.8,1.1-5.4,2-7.9c0.9-2.5,2.2-4.7,3.7-6.6c1.6-1.9,3.5-3.4,5.7-4.6c2.3-1.1,4.9-1.7,8.1-1.7
	c2.9,0,5.4,0.6,7.3,1.8c1.9,1.2,3.5,2.9,4.8,4.9c1.2,2,2.2,4.3,2.8,6.7c0.6,2.5,1.1,4.9,1.3,7.4H396.2z"/>
<path fill="#006C6E" d="M683.8,163c-0.4-4.1-1.1-8.1-2.2-12c-1.1-3.8-2.7-7.2-4.8-10.2c-2.1-2.9-4.8-5.3-8.1-7.1
	c-3.3-1.8-7.3-2.7-12.1-2.7c-5.3,0-9.9,1.1-13.7,3.3c-3.9,2.2-7.1,5.1-9.6,8.7c-2.5,3.6-4.4,7.7-5.6,12.3c-1.2,4.6-1.8,9.2-1.8,14
	c0,4.7,0.6,9.2,1.7,13.5c1.1,4.3,2.9,8,5.3,11.2c2.4,3.2,5.5,5.7,9.2,7.6c3.7,1.9,8.2,2.8,13.4,2.8c5.8,0,11.1-1.3,16.1-3.9
	c4.9-2.6,8.8-6.5,11.5-11.7l-1.5-2.2c-1.1,1.8-2.5,3.2-4.2,4.4c-1.7,1.1-3.5,2-5.5,2.7c-2,0.6-4,1.1-6.1,1.4
	c-2.1,0.3-4.1,0.4-5.9,0.4c-4.4,0-8.1-0.9-11.2-2.7c-3.1-1.8-5.6-4.1-7.5-7.1c-1.9-3-3.3-6.3-4.3-10c-0.9-3.7-1.4-7.4-1.5-11.3H684
	L683.8,163z M635.6,158.4c0.4-2.8,1.1-5.4,2-7.9c0.9-2.5,2.2-4.7,3.7-6.6c1.6-1.9,3.5-3.4,5.7-4.6c2.2-1.1,4.9-1.7,8.1-1.7
	c2.9,0,5.4,0.6,7.3,1.8c2,1.2,3.5,2.9,4.8,4.9c1.2,2,2.2,4.3,2.8,6.7c0.6,2.5,1.1,4.9,1.3,7.4H635.6z"/>
<path fill="#006C6E" d="M943.8,199.2c-0.7,0-1.2-0.4-1.6-1.2c-0.4-0.8-0.7-1.7-0.9-2.8c-0.2-1.1-0.3-2.1-0.4-3.1
	c0-1-0.1-1.7-0.1-2.2v-36.2c0-7.6-1.9-13.2-5.8-17c-3.9-3.7-9.5-5.6-16.9-5.6c-3.1,0-6,0.5-8.6,1.5c-2.6,1-5.2,2.5-7.7,4.4
	c-1.1,0.8-2.1,1.6-3.1,2.6c-1,0.9-2,1.9-2.9,3l1.3,0.9c1-0.7,2.1-1.5,3.4-2.3c1.3-0.8,2.6-1.6,4-2.3c1.4-0.7,2.7-1.3,4.1-1.7
	c1.4-0.4,2.6-0.7,3.8-0.7c2.1,0,4.3,0.3,6.5,0.9c2.2,0.6,4.2,1.5,5.9,2.7c1.7,1.2,3.1,2.7,4.2,4.6c1.1,1.9,1.6,4,1.6,6.5v7.2
	c-3.6,1.2-7.2,2.1-10.7,2.7c-3.5,0.6-7.4,1.9-11.6,3.8c-2.5,1.1-5,2.2-7.3,3.5c-2.3,1.2-4.4,2.7-6.2,4.3c-1.8,1.6-3.2,3.5-4.3,5.8
	c-1.1,2.2-1.6,4.8-1.6,7.7c0,2.8,0.5,5.4,1.5,7.7c1,2.3,2.4,4.2,4.2,5.8c1.8,1.6,3.8,2.9,6.2,3.7c2.3,0.8,4.9,1.3,7.6,1.3
	c4.6,0,8.8-1.2,12.6-3.5c3.8-2.3,7.1-5.2,10-8.8c0.1,3.5,0.5,6.1,1.3,7.8c0.8,1.8,1.9,2.9,3.2,3.4c1.4,0.5,3.1,0.4,5.1-0.4
	c2-0.7,4.3-1.9,6.8-3.5l0.1-2.2c-0.5,0.5-1.1,0.9-1.8,1.2C945.1,199,944.4,199.2,943.8,199.2z M930.6,180.9c0,2.9-0.8,5.4-2.3,7.5
	c-1.5,2.2-3.4,3.9-5.7,5.2c-2.3,1.3-4.7,2.2-7.3,2.6c-2.6,0.4-5.1,0.2-7.3-0.5c-2.3-0.7-4.1-2.1-5.7-4.1c-1.5-2-2.3-4.6-2.3-8
	c0-2.9,0.7-5.2,2.1-7.2c1.4-1.9,3.1-3.5,5.3-4.9c2.1-1.3,4.5-2.4,7-3.2c2.5-0.8,4.9-1.5,7.1-2.1l9.1-2.4V180.9z"/>
<path fill="#006C6E" d="M730.1,168.2c-2.6-1.9-5.4-3.6-8.5-5.1c-3.1-1.5-5.9-3-8.5-4.5c-2.6-1.5-4.8-3.2-6.5-5
	c-1.8-1.8-2.6-4-2.6-6.6c0-3.3,1.2-6,3.6-7.8c2.4-1.9,5.2-2.8,8.5-2.9c3.3-0.1,6.6,0.9,9.9,2.7c3.3,1.9,5.9,4.9,7.6,9.2h1v-16.4
	h-0.7l-1.2,2.4c-2.7-0.5-5.4-1.1-7.8-1.9c-2.5-0.8-5.2-1.2-8-1.2s-5.6,0.4-8.2,1.2c-2.6,0.8-5,2-7,3.6c-2,1.6-3.6,3.6-4.8,6
	c-1.2,2.4-1.8,5.1-1.8,8.2c0,3.7,0.9,6.9,2.6,9.4c1.7,2.5,3.8,4.7,6.3,6.5c2.5,1.8,5.2,3.4,8.2,4.8c3,1.4,5.7,2.8,8.2,4.4
	c2.5,1.5,4.6,3.2,6.3,5.2c1.7,1.9,2.6,4.3,2.6,7.2c0,2.7-0.7,4.9-2.1,6.6c-1.4,1.8-3.2,3.1-5.4,4c-2.2,0.9-4.6,1.3-7.3,1.3
	c-2.7-0.1-5.2-0.6-7.6-1.6c-2.4-1-4.6-2.6-6.5-4.6c-1.9-2-3.2-4.6-3.9-7.6l-1.2,0.3l-0.4,19.6h1c0.2-0.3,0.4-1,0.7-2.1
	c0.3-1.1,0.6-1.7,1-1.7c0.8,0.1,1.6,0.2,2.3,0.4c0.8,0.2,1.6,0.4,2.3,0.6c2.3,0.5,4.5,0.9,6.8,1.3c2.3,0.4,4.5,0.6,6.8,0.6
	c3,0,6-0.5,9-1.3c2.9-0.9,5.6-2.3,7.9-4.3c4.4-3.7,6.6-8.5,6.6-14.5c0-3.7-0.9-6.9-2.6-9.5C734.9,172.4,732.7,170.2,730.1,168.2z"/>
<path fill="#006C6E" d="M502.3,196.9c-3.7-1.1-7.7-1.9-12-2.1c-4.3-0.3-8.3-0.6-12-0.8c-3.7-0.2-6.8-0.7-9.3-1.3
	c-2.5-0.6-3.7-1.8-3.7-3.5c0-0.9,0.3-1.8,0.9-2.7c0.6-0.9,1.3-1.8,2.1-2.6c0.8-0.8,1.7-1.5,2.7-2.1c1-0.6,1.9-1,2.6-1.2
	c4.2,1.3,8.4,1.6,12.5,1c4.1-0.6,7.8-2.1,11-4.2c3.2-2.2,5.8-5,7.8-8.6c2-3.5,2.9-7.6,2.9-12.3c0-2.6-0.3-5.3-0.8-8.2
	c-0.5-2.9-1.5-5.4-3-7.6l2.2-0.9l9.7-4l-0.7-1.9c-2.6,0.3-4.9,0.5-6.8,0.7c-1.9,0.1-3.8,0.3-5.9,0.4c-2.1,0.1-3.9,0.3-5.4,0.4
	c-2.3-1.6-4.7-2.7-7.3-3.3c-2.6-0.6-5.3-1-8.1-1c-4.6,0-8.7,0.9-12.2,2.7c-3.5,1.8-6.4,4.1-8.6,6.9c-2.2,2.8-3.8,6-4.7,9.5
	c-0.9,3.5-1.1,7-0.7,10.5c0.5,3.5,1.7,6.7,3.7,9.8c2,3.1,4.8,5.6,8.4,7.6c-2.2,1.7-4.2,3.5-6.2,5.4c-2,1.9-3.4,3.9-4.3,5.9
	c-0.8,2-0.8,4,0.1,6c0.9,2,3.1,3.8,6.8,5.6c-1.7,1-3.4,2-5.1,3.2c-1.7,1.1-3.3,2.4-4.6,3.8c-1.4,1.4-2.5,3-3.4,4.8
	c-0.9,1.8-1.4,3.7-1.4,5.8c0,3.9,1.6,7.2,4.9,9.7c3.3,2.6,7.3,4.4,12.2,5.5c4.8,1.1,10.1,1.4,15.8,1.1c5.7-0.3,11-1.4,15.8-3.2
	c4.8-1.8,8.9-4.4,12.2-7.7c3.3-3.3,4.9-7.3,4.9-12c0-4.2-1.2-7.5-3.7-9.8C509.2,199.8,506,198,502.3,196.9z M466.1,152.8
	c0-3.8,0.8-7,2.3-9.5c1.6-2.5,3.5-4.3,5.8-5.5c2.3-1.1,4.8-1.6,7.5-1.3c2.7,0.3,5.3,1.4,7.6,3.2c2.3,1.8,4.2,4.4,5.8,7.7
	c1.6,3.3,2.3,7.4,2.3,12.3c0,3.8-0.8,7-2.3,9.5c-1.6,2.5-3.5,4.3-5.8,5.5c-2.3,1.2-4.8,1.6-7.6,1.3c-2.7-0.3-5.3-1.3-7.5-3.1
	c-2.3-1.8-4.2-4.3-5.8-7.7C466.9,162,466.1,157.8,466.1,152.8z M506.7,219.6c-1.6,1.6-3.5,2.9-5.8,3.8c-2.8,1.2-5.8,2.1-9,2.6
	c-3.1,0.5-6.3,0.8-9.4,0.8c-1.8,0-3.9-0.1-6.5-0.4c-2.6-0.2-5.1-0.7-7.6-1.5c-2.5-0.7-4.6-1.9-6.4-3.3c-1.8-1.5-2.6-3.5-2.6-6.1
	c0-1.5,0.4-2.9,1.1-4.2c0.7-1.3,1.6-2.6,2.7-3.7c1.1-1.1,2.3-2.2,3.6-3c1.3-0.9,2.6-1.6,3.7-2.2c2.6,0.5,5.3,0.9,7.9,1.1
	c2.6,0.2,5.3,0.4,8.1,0.5c1.4,0,3.3,0.1,5.9,0.3c2.5,0.2,5.1,0.6,7.6,1.2c2.5,0.6,4.6,1.5,6.5,2.7c1.8,1.2,2.7,2.9,2.7,5
	C509.1,215.9,508.3,218,506.7,219.6z"/>
<path fill="#006C6E" d="M843.9,110.6c3.9,0,6.7,0.7,8.4,2.1c1.7,1.4,3,4.1,3.7,8h1.5l-0.4-17.7h-77.2l-0.6,17.7h1.3
	c0.8-3.8,2.1-6.5,3.9-8c1.8-1.5,4.6-2.2,8.4-2.2h19.4v83.7c0,1.8-0.1,3.1-0.4,4.1c-0.2,0.9-0.7,1.7-1.2,2.2
	c-0.6,0.5-1.4,0.8-2.4,0.9c-1,0.1-2.3,0.1-3.9,0.1v1.5h28.3v-1.5c-1.7,0-3,0-4-0.1c-1-0.1-1.8-0.4-2.4-0.9c-0.6-0.5-1-1.2-1.2-2.2
	c-0.2-0.9-0.3-2.3-0.3-4.1v-83.7H843.9z"/>
<path fill="#006C6E" d="M611,200.6c-0.3-0.8-0.4-2.3-0.4-4.5v-64.2l-2.8-0.1l-14.4,5v0.7c1.3,0.3,2.3,0.4,3.2,0.3
	c0.8-0.1,1.5-0.1,2,0.1c0.5,0.1,0.9,0.5,1.1,1.1c0.2,0.6,0.4,1.7,0.4,3.4v53.3c0,2.9-0.4,4.6-1.2,5.2c-0.8,0.6-2.6,1-5.2,1v1.2h21.3
	v-1.2C612.6,201.8,611.3,201.4,611,200.6z"/>
<path fill="#006C6E" d="M997.9,133.9c0.3,0,0.7,0,1.2,0.1c0.5,0,1,0.2,1.4,0.4c0.4,0.2,0.8,0.4,1,0.7c0.3,0.3,0.3,0.6,0.2,1
	l-18,52.3l-19.5-50.5c-0.3-0.9-0.4-1.6-0.2-2.1c0.1-0.5,0.5-0.9,1-1.2c0.5-0.2,1.1-0.4,1.8-0.5c0.7-0.1,1.4-0.1,2.1-0.1v-1.2h-21
	v1.2c1,0.1,1.8,0.3,2.6,0.6c0.7,0.3,1.3,0.9,1.7,1.9l26.3,65c-0.2,0.7-0.6,2-1.1,3.8c-0.5,1.8-1.2,3.9-1.9,6.1
	c-0.7,2.3-1.5,4.6-2.4,7.1c-0.9,2.5-1.8,4.7-2.9,6.7c-1,2-2.1,3.6-3.1,4.9c-1,1.2-2.1,1.8-3.1,1.7c-0.9-0.1-1.5-0.6-1.9-1.5
	c-0.4-0.9-0.8-1.9-1.2-3c-0.4-1.1-1.1-2.1-1.9-3c-0.8-0.9-2.1-1.3-3.9-1.3c-0.6,0-1.2,0.3-1.7,0.8c-0.5,0.5-1,1.2-1.4,1.9
	c-0.4,0.7-0.7,1.5-0.9,2.3c-0.2,0.8-0.3,1.4-0.3,1.9c0.1,0.9,0.6,1.6,1.4,2.3c0.8,0.6,1.8,1.2,2.9,1.6c1.1,0.4,2.2,0.8,3.4,1
	c1.1,0.2,2,0.3,2.7,0.3c2.9,0,5.5-0.8,7.8-2.4c2.2-1.6,4.2-3.5,6-5.8c1.8-2.3,3.2-4.8,4.5-7.5c1.2-2.7,2.3-5.2,3.1-7.6l27.3-74.6
	c0.4-1,0.8-1.7,1.3-2.2c0.5-0.5,1.3-0.8,2.3-0.9v-1.2h-15.4V133.9z"/>
<path fill="#006C6E" d="M585.5,154.4c-1.1-4.4-2.8-8.3-5.1-11.7c-2.3-3.4-5.2-6.2-8.8-8.3c-3.6-2.1-7.7-3.2-12.5-3.2
	c-4.9,0-9.2,1.1-12.9,3.4c-3.7,2.3-6.8,5.5-9.2,9.7V97.9c-0.6-0.3-1.9-0.3-3.8,0c-2,0.3-4.1,0.7-6.3,1.2c-2.3,0.5-4.4,1-6.3,1.6
	c-2,0.5-3.3,0.9-4,1.1v0.7c1,0.3,2.1,0.4,3.2,0.3c1.2-0.1,2.2-0.1,3.2,0.1c1,0.1,1.8,0.5,2.4,1.1c0.6,0.6,1,1.7,1,3.4l-0.1,95.7h1.5
	l4.5-7.1c3.1,3.1,6.4,5.4,9.8,6.7c3.4,1.3,7.2,1.9,11.5,1.9c5.4,0,10.1-1.1,14.2-3.2c4.1-2.1,7.5-4.9,10.3-8.4
	c2.8-3.4,4.9-7.4,6.4-11.7c1.5-4.4,2.3-8.9,2.5-13.4C587,163.2,586.6,158.7,585.5,154.4z M572.5,186.2c-1.9,4.1-4.3,7.2-7.1,9.2
	c-2.8,2-5.9,3.1-9.2,3.2c-3.3,0.1-6.4-0.5-9.2-1.8c-2.8-1.4-5.2-3.4-7.1-6.1c-1.9-2.7-2.9-5.9-2.9-9.7v-21.4c0-4.2,0.9-7.9,2.9-11
	c1.9-3.1,4.3-5.4,7.1-6.9c2.8-1.5,5.9-2.2,9.2-2c3.3,0.2,6.4,1.4,9.2,3.5c2.8,2.2,5.2,5.5,7.1,9.9c1.9,4.4,2.9,10.1,2.9,17
	C575.4,176.7,574.4,182.1,572.5,186.2z"/>
<linearGradient id="SVGID_1_" gradientUnits="userSpaceOnUse" x1="262.2368" y1="155.3262" x2="2.0726" y2="108.937">
	<stop  offset="0" style="stop-color:#C2D82E"/>
	<stop  offset="7.620000e-002" style="stop-color:#C2D82E"/>
	<stop  offset="0.2439" style="stop-color:#8EBB40"/>
	<stop  offset="0.4281" style="stop-color:#5C9E50"/>
	<stop  offset="0.602" style="stop-color:#34885E"/>
	<stop  offset="0.7605" style="stop-color:#177867"/>
	<stop  offset="0.8983" style="stop-color:#066E6D"/>
	<stop  offset="1" style="stop-color:#006B6F"/>
</linearGradient>
<path fill="url(#SVGID_1_)" d="M249.5,71.5c-23.6-45.7-79.8-63.6-125.5-40c-21.8,11.3-37.3,30-45,51.5c31.8-11.4,68,2.3,83.9,33.1
	c17.4,33.6,4.2,75-29.4,92.4c-33.7,17.4-75,4.2-92.4-29.5C11.2,121.1,34,49.9,91.9,19.9C131-0.3,176,3.4,210.4,25.7
	C187.8,9,160.2,0,132.1,0c-20.4,0-41.2,4.8-60.6,14.8C6.7,48.2-18.7,128,14.8,192.8c22.2,42.9,64.6,68.5,109.5,71.3h15.9
	c17.8-1.1,35.7-5.8,52.6-14.6C257.6,216,283,136.3,249.5,71.5z M158.6,229.9c-33.7,17.4-73.6,10.5-99.5-14.3
	c12.9,8.1,27.8,12.5,43,12.5c12.4,0,25-2.9,36.9-9c39.4-20.4,54.9-68.8,34.5-108.2c-13.6-26.3-39.6-41.9-67.2-43.4
	c35.5-5.3,72,12.2,89.5,45.9C217.7,155.7,201.1,207.9,158.6,229.9z"/>
</svg>
