<?xml version="1.0" encoding="utf-8"?>
<!-- Generator: Adobe Illustrator 14.0.0, SVG Export Plug-In . SVG Version: 6.00 Build 43363)  -->
<!DOCTYPE svg PUBLIC "-//W3C//DTD SVG 1.1//EN" "http://www.w3.org/Graphics/SVG/1.1/DTD/svg11.dtd">
<svg version="1.1" id="Layer_1" xmlns="http://www.w3.org/2000/svg" xmlns:xlink="http://www.w3.org/1999/xlink" x="0px" y="0px"
	 width="160px" height="158.5px" viewBox="0 0 160 158.5" enable-background="new 0 0 160 158.5" xml:space="preserve">
<linearGradient id="SVGID_1_" gradientUnits="userSpaceOnUse" x1="80" y1="158.5156" x2="80" y2="2.0005">
	<stop  offset="0" style="stop-color:#9C9C9C"/>
	<stop  offset="1" style="stop-color:#DEDEDE"/>
</linearGradient>
<path fill="url(#SVGID_1_)" d="M80,2C35.8,2,0,37,0,80.3c0,43.2,35.8,78.3,80,78.3s80-35,80-78.3C160,37,124.2,2,80,2z M80,148.7
	c-38.7,0-70.2-30.7-70.2-68.5c0-37.8,31.5-68.5,70.2-68.5c38.7,0,70.2,30.7,70.2,68.5C150.2,118,118.7,148.7,80,148.7z"/>
<polygon fill="#8AB74E" points="110.2,49.8 77.3,91.8 56.5,70.5 44.3,82 76.7,117.3 123.8,60.5 "/>
</svg>
