<?xml version="1.0" encoding="utf-8"?>
<!-- Generator: Adobe Illustrator 14.0.0, SVG Export Plug-In . SVG Version: 6.00 Build 43363)  -->
<!DOCTYPE svg PUBLIC "-//W3C//DTD SVG 1.1//EN" "http://www.w3.org/Graphics/SVG/1.1/DTD/svg11.dtd">
<svg version="1.1" id="Layer_1" xmlns="http://www.w3.org/2000/svg" xmlns:xlink="http://www.w3.org/1999/xlink" x="0px" y="0px"
	 width="157px" height="196.2px" viewBox="0 0 157 196.2" enable-background="new 0 0 157 196.2" xml:space="preserve">
<g>
	<path fill="#619297" d="M38.6,43.6v29.7h10.6h0V43.6L62.1,0H51.3l-7.3,28.8L36.5,0H25.3c2.2,6.8,4.6,13.6,6.8,20.4
		C35.5,30.7,37.7,38.4,38.6,43.6z"/>
	<path fill="#619297" d="M76.3,74.1c4.8,0,8.5-1.9,11.2-5.6c2-2.7,3-7,3-12.9V36.5c0-5.8-1-10.1-3-12.9c-2.7-3.7-6.4-5.6-11.2-5.6
		c-4.8,0-8.5,1.9-11.2,5.6c-2,2.8-3,7-3,12.9v19.1c0,5.8,1,10.1,3,12.9C67.8,72.2,71.5,74.1,76.3,74.1z M71.7,34.5
		c0-5,1.5-7.6,4.6-7.6c3.1,0,4.6,2.5,4.6,7.6v23c0,5.1-1.5,7.6-4.6,7.6c-3.1,0-4.6-2.5-4.6-7.6V34.5z"/>
	<path fill="#619297" d="M105.4,74.1c3.5,0,7.1-2.2,11-6.7h0v6h9.6V18.7h-9.6v41.8c-2.1,3.1-4.1,4.6-6.1,4.6c-1.3,0-2-0.8-2.3-2.3
		c-0.1-0.3-0.1-1.5-0.1-3.9V18.7h-9.6v43.2c0,3.9,0.3,6.5,0.8,8.1C100.2,72.8,102.3,74.1,105.4,74.1z"/>
	<path fill="#619297" d="M131.1,128.9c-3.2,0-4.8,2.5-4.8,7.5v5h9.5v-5C135.8,131.4,134.2,128.9,131.1,128.9z"/>
	<path fill="#619297" d="M95.9,128.9c-1.6,0-3.1,0.8-4.7,2.4v33c1.6,1.6,3.2,2.4,4.7,2.4c2.7,0,4.1-2.4,4.1-7.3v-23.1
		C100,131.4,98.6,128.9,95.9,128.9z"/>
	<path fill="#619297" d="M154.3,101.4c-1.9-8.6-8.7-15-17-15.9c-19.5-2.3-39.2-2.3-58.8-2.3c-19.6,0-39.3,0-58.8,2.3
		c-8.2,0.9-15.1,7.3-17,15.9C0,113.6,0,127,0,139.7c0,12.6,0,26.1,2.7,38.3c1.9,8.6,8.7,15,17,15.9c19.5,2.2,39.2,2.3,58.8,2.2
		c19.6,0,39.3,0,58.8-2.2c8.2-1,15.1-7.3,17-15.9c2.7-12.3,2.7-25.7,2.7-38.3C157,127,157,113.6,154.3,101.4z M44.8,112.4H33.4v62.4
		H22.9v-62.4H11.7v-10.2h33.1V112.4z M73.5,174.8h-9.5v-5.9c-3.8,4.5-7.3,6.6-10.8,6.6c-3.1,0-5.2-1.3-6.1-4c-0.5-1.6-0.8-4.2-0.8-8
		v-42.8h9.5v39.8c0,2.3,0,3.5,0.1,3.8c0.2,1.5,1,2.3,2.2,2.3c1.9,0,3.9-1.5,6-4.6v-41.3h9.5V174.8z M109.5,158.5c0,5-0.3,8.6-1,10.9
		c-1.3,4-3.8,6.1-7.6,6.1c-3.4,0-6.6-1.9-9.8-6v5.2h-9.5v-72.6h9.5v23.7c3.1-3.9,6.3-5.9,9.8-5.9c3.8,0,6.3,2.1,7.6,6.1
		c0.6,2.2,1,5.8,1,10.9V158.5z M145.3,149.5h-19v9.6c0,5,1.6,7.5,4.8,7.5c2.3,0,3.7-1.3,4.2-3.9c0.1-0.5,0.2-2.7,0.2-6.6h9.7v1.4
		c0,3.2-0.1,5.3-0.2,6.3c-0.3,2.2-1.1,4.1-2.2,5.9c-2.6,3.9-6.5,5.9-11.5,5.9c-5,0-8.8-1.8-11.5-5.5c-2-2.7-3-7-3-12.7v-19
		c0-5.8,0.9-10,2.9-12.7c2.7-3.7,6.5-5.5,11.4-5.5c4.8,0,8.5,1.8,11.2,5.5c2,2.7,2.9,7,2.9,12.7V149.5z"/>
</g>
</svg>
